<svg xmlns="http://www.w3.org/2000/svg" width="578.891" height="125.975" viewBox="0 0 578.891 125.975"><path fill="#5889AA" d="M50.633 106.51h1.33v4.823c0 1.178.062 1.988.19 2.432.19.633.552 1.133 1.088 1.5s1.175.55 1.917.55 1.37-.18 1.888-.536.874-.83 1.07-1.41c.133-.4.2-1.245.2-2.536v-4.823h1.358v5.07c0 1.426-.166 2.498-.5 3.22s-.832 1.286-1.5 1.694c-.667.408-1.504.613-2.51.613s-1.848-.205-2.522-.613c-.673-.408-1.176-.978-1.51-1.71-.33-.73-.497-1.83-.497-3.298v-4.976zM62.625 106.51h1.33v1.852c.53-.71 1.12-1.24 1.765-1.59s1.348-.528 2.108-.528c.772 0 1.458.197 2.056.59s1.04.92 1.325 1.586c.284.664.426 1.7.426 3.104v5.318h-1.33v-4.928c0-1.19-.05-1.985-.148-2.384-.154-.684-.45-1.198-.886-1.543-.437-.345-1.006-.518-1.71-.518-.803 0-1.523.265-2.16.797-.636.53-1.056 1.19-1.258 1.975-.127.513-.19 1.45-.19 2.81v3.79h-1.33V106.51zM85.062 107.64l-.854.883c-.71-.69-1.406-1.035-2.084-1.035-.432 0-.802.143-1.11.428s-.46.617-.46.997c0 .335.126.655.38.96.254.31.787.673 1.6 1.09.99.514 1.66 1.008 2.016 1.482.35.48.523 1.02.523 1.623 0 .85-.298 1.566-.894 2.156-.597.588-1.342.883-2.236.883-.596 0-1.165-.13-1.707-.39s-.99-.617-1.345-1.073l.835-.95c.68.767 1.4 1.15 2.16 1.15.533 0 .987-.17 1.36-.513.375-.34.563-.743.563-1.206 0-.38-.124-.718-.37-1.016-.25-.29-.807-.658-1.676-1.102-.933-.48-1.567-.955-1.903-1.424-.335-.47-.503-1.003-.503-1.604 0-.785.268-1.437.804-1.956.537-.52 1.214-.78 2.032-.78.95 0 1.907.467 2.87 1.398zM87.877 102.256c.302 0 .56.108.775.323.214.214.322.474.322.777 0 .298-.107.554-.322.77-.214.215-.473.322-.775.322-.296 0-.552-.108-.766-.324-.213-.215-.32-.47-.32-.77 0-.303.107-.562.32-.777.216-.216.47-.324.767-.324zm-.66 4.254h1.33v10.33h-1.33v-10.33zM92.468 102.674h1.33v3.836h2.107v1.15h-2.108v9.18h-1.33v-9.18h-1.812v-1.15h1.813v-3.836zM106.597 113.413l1.12.588c-.367.724-.79 1.306-1.273 1.75-.48.44-1.023.778-1.625 1.01s-1.284.347-2.044.347c-1.685 0-3.003-.553-3.953-1.657-.95-1.104-1.426-2.353-1.426-3.745 0-1.31.402-2.48 1.207-3.504 1.02-1.304 2.385-1.956 4.096-1.956 1.762 0 3.168.668 4.22 2.004.748.943 1.128 2.12 1.14 3.532h-9.295c.025 1.2.41 2.184 1.15 2.95.74.768 1.657 1.152 2.748 1.152.526 0 1.038-.092 1.535-.275.498-.182.92-.426 1.27-.728.346-.304.723-.793 1.13-1.467zm0-2.783c-.177-.708-.436-1.275-.775-1.7s-.788-.765-1.345-1.024-1.144-.39-1.76-.39c-1.013 0-1.884.327-2.613.98-.532.474-.935 1.186-1.208 2.135h7.7zM126.232 102.522v14.318h-1.31v-1.775c-.558.677-1.183 1.186-1.876 1.527-.693.342-1.45.514-2.274.514-1.462 0-2.71-.53-3.746-1.59-1.035-1.06-1.552-2.352-1.552-3.87 0-1.487.522-2.76 1.566-3.817 1.044-1.058 2.3-1.587 3.77-1.587.848 0 1.616.182 2.303.542.687.36 1.29.9 1.81 1.624v-5.888h1.31zm-5.312 5.004c-.74 0-1.423.182-2.05.545s-1.123.875-1.493 1.532c-.37.658-.555 1.354-.555 2.087 0 .727.187 1.422.56 2.086s.874 1.18 1.503 1.55c.63.37 1.304.556 2.025.556.727 0 1.417-.184 2.068-.55.65-.368 1.152-.864 1.503-1.49.352-.626.527-1.33.527-2.114 0-1.195-.394-2.194-1.18-2.998-.787-.803-1.757-1.204-2.907-1.204zM137.94 113.413l1.12.588c-.367.724-.79 1.306-1.273 1.75-.48.44-1.023.778-1.625 1.01s-1.283.347-2.043.347c-1.686 0-3.004-.553-3.954-1.657-.95-1.104-1.426-2.353-1.426-3.745 0-1.31.402-2.48 1.207-3.504 1.02-1.304 2.385-1.956 4.096-1.956 1.762 0 3.168.668 4.22 2.004.748.943 1.128 2.12 1.14 3.532h-9.295c.025 1.2.41 2.184 1.15 2.95.74.768 1.657 1.152 2.748 1.152.526 0 1.038-.092 1.535-.275.5-.182.92-.426 1.27-.728.347-.304.724-.793 1.13-1.467zm0-2.783c-.177-.708-.436-1.275-.775-1.7s-.788-.765-1.345-1.024-1.144-.39-1.76-.39c-1.013 0-1.884.327-2.613.98-.532.474-.935 1.186-1.208 2.135h7.7zM147.064 102.522h1.33v14.318h-1.33v-14.318zM161.45 106.51v10.33h-1.31v-1.774c-.558.677-1.183 1.186-1.876 1.527-.693.342-1.45.514-2.274.514-1.462 0-2.71-.53-3.746-1.59-1.035-1.06-1.552-2.352-1.552-3.87 0-1.487.522-2.76 1.566-3.817 1.044-1.057 2.3-1.586 3.77-1.586.848 0 1.616.182 2.303.542.688.36 1.29.9 1.81 1.624v-1.9h1.31zm-5.313 1.016c-.74 0-1.423.182-2.05.545s-1.123.875-1.493 1.532c-.37.658-.555 1.354-.555 2.087 0 .727.186 1.422.56 2.086s.873 1.18 1.502 1.55c.63.37 1.304.556 2.025.556.728 0 1.417-.184 2.068-.55.65-.368 1.152-.864 1.503-1.49.35-.626.526-1.33.526-2.114 0-1.195-.394-2.194-1.18-2.998-.787-.803-1.756-1.204-2.907-1.204z"/><path fill="#333" d="M184.755 102.256c.302 0 .56.108.775.323.214.214.322.474.322.777 0 .298-.107.554-.322.77-.214.215-.473.322-.775.322-.296 0-.552-.108-.766-.324-.215-.215-.322-.47-.322-.77 0-.303.107-.562.32-.777.216-.216.47-.324.767-.324zm-.66 4.254h1.33v10.33h-1.33v-10.33zM187.685 106.51h1.358v1.51c.405-.595.832-1.04 1.282-1.334.45-.294.917-.442 1.405-.442.367 0 .76.117 1.177.352l-.693 1.12c-.28-.12-.513-.18-.703-.18-.442 0-.87.183-1.28.546-.412.364-.726.93-.94 1.695-.166.588-.248 1.778-.248 3.57v3.494h-1.358v-10.33zM202.734 113.413l1.12.588c-.367.724-.79 1.306-1.273 1.75-.48.44-1.022.778-1.624 1.01s-1.283.347-2.043.347c-1.685 0-3.003-.553-3.953-1.657-.95-1.104-1.426-2.353-1.426-3.745 0-1.31.402-2.48 1.207-3.504 1.02-1.304 2.386-1.956 4.097-1.956 1.762 0 3.168.668 4.22 2.004.748.943 1.128 2.12 1.14 3.532h-9.295c.025 1.2.41 2.184 1.15 2.95.74.768 1.657 1.152 2.748 1.152.526 0 1.038-.092 1.535-.275.498-.182.92-.426 1.27-.728.347-.304.724-.793 1.13-1.467zm0-2.783c-.177-.708-.436-1.275-.775-1.7s-.79-.765-1.346-1.024-1.144-.39-1.76-.39c-1.013 0-1.884.327-2.613.98-.53.474-.934 1.186-1.207 2.135h7.7zM216.7 108.655l-1.053.655c-.91-1.21-2.153-1.813-3.728-1.813-1.26 0-2.304.404-3.135 1.215-.832.81-1.247 1.792-1.247 2.95 0 .75.19 1.46.574 2.123.382.664.907 1.18 1.574 1.546.667.368 1.415.552 2.243.552 1.517 0 2.756-.605 3.717-1.814l1.054.693c-.493.745-1.156 1.32-1.988 1.73-.832.41-1.78.616-2.844.616-1.633 0-2.988-.52-4.063-1.558-1.076-1.038-1.614-2.3-1.614-3.788 0-1 .252-1.93.756-2.787.503-.857 1.195-1.527 2.075-2.008.88-.48 1.865-.723 2.954-.723.684 0 1.344.105 1.98.314s1.176.48 1.62.816c.44.338.817.765 1.127 1.283zM220.414 102.674h1.33v3.836h2.107v1.15h-2.107v9.18h-1.33v-9.18h-1.812v-1.15h1.814v-3.836zM226.306 102.256c.302 0 .56.108.775.323.215.214.323.474.323.777 0 .298-.107.554-.322.77-.213.215-.472.322-.774.322-.296 0-.552-.108-.766-.324-.214-.215-.32-.47-.32-.77 0-.303.106-.562.32-.777.214-.216.47-.324.766-.324zm-.66 4.254h1.33v10.33h-1.33v-10.33zM234.628 106.243c1.592 0 2.91.576 3.957 1.73.95 1.05 1.427 2.294 1.427 3.73 0 1.444-.502 2.705-1.508 3.784-1.005 1.08-2.297 1.62-3.876 1.62-1.585 0-2.88-.54-3.885-1.62s-1.508-2.34-1.508-3.783c0-1.432.476-2.672 1.427-3.723 1.046-1.157 2.368-1.737 3.966-1.737zm-.005 1.3c-1.105 0-2.055.41-2.85 1.227-.793.816-1.19 1.804-1.19 2.962 0 .748.18 1.443.543 2.09.362.646.85 1.144 1.467 1.495.616.35 1.292.526 2.03.526s1.413-.176 2.03-.526c.615-.352 1.104-.85 1.466-1.495.36-.646.542-1.342.542-2.09 0-1.158-.4-2.146-1.196-2.962-.796-.817-1.744-1.226-2.843-1.226zM242.47 106.51h1.33v1.852c.532-.71 1.12-1.24 1.766-1.59s1.348-.528 2.108-.528c.772 0 1.458.197 2.056.59s1.04.92 1.325 1.586c.285.664.427 1.7.427 3.104v5.318h-1.33v-4.928c0-1.19-.05-1.985-.148-2.384-.154-.684-.45-1.198-.886-1.543-.437-.345-1.006-.518-1.71-.518-.803 0-1.523.265-2.16.797-.636.53-1.056 1.19-1.258 1.975-.127.513-.19 1.45-.19 2.81v3.79h-1.33V106.51zM268.62 106.51h1.33v8.23c0 1.45-.126 2.512-.38 3.183-.348.95-.953 1.68-1.813 2.193s-1.896.77-3.105.77c-.886 0-1.682-.126-2.388-.377-.706-.25-1.28-.588-1.724-1.01-.443-.423-.85-1.04-1.225-1.853h1.443c.393.684.9 1.19 1.52 1.52.622.328 1.392.493 2.31.493.907 0 1.672-.17 2.297-.506.624-.338 1.07-.763 1.335-1.272.266-.512.4-1.336.4-2.475v-.532c-.5.633-1.113 1.118-1.835 1.458-.723.338-1.49.508-2.3.508-.95 0-1.844-.235-2.68-.707s-1.483-1.106-1.94-1.903c-.455-.798-.683-1.674-.683-2.63s.237-1.847.713-2.673c.475-.826 1.132-1.48 1.972-1.96.84-.482 1.725-.724 2.656-.724.773 0 1.494.16 2.163.48.668.32 1.313.846 1.934 1.58v-1.793zm-3.92 1.016c-.754 0-1.454.182-2.1.545-.646.365-1.152.868-1.52 1.51-.366.644-.55 1.34-.55 2.085 0 1.134.38 2.07 1.14 2.81.76.742 1.743 1.112 2.952 1.112 1.222 0 2.205-.367 2.948-1.102s1.116-1.7 1.116-2.896c0-.778-.17-1.474-.513-2.085-.342-.61-.826-1.093-1.453-1.447-.625-.355-1.3-.532-2.02-.532zM281.496 113.413l1.12.588c-.367.724-.79 1.306-1.273 1.75-.48.44-1.023.778-1.625 1.01s-1.283.347-2.043.347c-1.686 0-3.003-.553-3.954-1.657-.95-1.104-1.425-2.353-1.425-3.745 0-1.31.402-2.48 1.207-3.504 1.02-1.304 2.385-1.956 4.096-1.956 1.762 0 3.168.668 4.22 2.004.747.943 1.128 2.12 1.14 3.532h-9.295c.025 1.2.41 2.184 1.15 2.95.74.768 1.657 1.152 2.748 1.152.527 0 1.04-.092 1.536-.275.497-.182.92-.426 1.27-.728.347-.304.724-.793 1.13-1.467zm0-2.783c-.177-.708-.436-1.275-.774-1.7-.34-.423-.788-.765-1.346-1.024s-1.145-.39-1.76-.39c-1.014 0-1.885.327-2.613.98-.532.474-.935 1.186-1.208 2.135h7.7zm-3.2-8.963h2.04l-2.8 2.925h-1.31l2.07-2.925zM285.436 106.51h1.33v1.852c.53-.71 1.12-1.24 1.766-1.59.645-.353 1.348-.528 2.107-.528.77 0 1.456.197 2.055.59s1.04.92 1.325 1.586c.284.664.427 1.7.427 3.104v5.318h-1.33v-4.928c0-1.19-.05-1.985-.147-2.384-.154-.684-.45-1.198-.887-1.543-.436-.345-1.006-.518-1.71-.518-.803 0-1.522.265-2.16.797-.636.53-1.055 1.19-1.257 1.975-.127.513-.19 1.45-.19 2.81v3.79h-1.33V106.51zM305.993 113.413l1.12.588c-.367.724-.792 1.306-1.273 1.75-.48.44-1.022.778-1.625 1.01s-1.283.347-2.044.347c-1.684 0-3-.553-3.952-1.657-.95-1.104-1.426-2.353-1.426-3.745 0-1.31.402-2.48 1.207-3.504 1.02-1.304 2.385-1.956 4.095-1.956 1.762 0 3.168.668 4.22 2.004.748.943 1.128 2.12 1.142 3.532h-9.297c.025 1.2.41 2.184 1.15 2.95.742.768 1.658 1.152 2.748 1.152.525 0 1.037-.092 1.535-.275.498-.182.92-.426 1.27-.728.346-.304.723-.793 1.13-1.467zm0-2.783c-.178-.708-.436-1.275-.775-1.7-.34-.423-.787-.765-1.345-1.024s-1.144-.39-1.76-.39c-1.013 0-1.884.327-2.613.98-.532.474-.935 1.186-1.208 2.135h7.7zm-3.2-8.963h2.04l-2.8 2.925h-1.31l2.07-2.925zM309.43 106.51h1.357v1.51c.404-.595.832-1.04 1.28-1.334s.92-.442 1.407-.442c.367 0 .76.117 1.177.352l-.69 1.12c-.28-.12-.515-.18-.704-.18-.443 0-.87.183-1.282.546-.41.364-.725.93-.94 1.695-.164.588-.246 1.778-.246 3.57v3.494h-1.357v-10.33zM326.075 106.51v10.33h-1.31v-1.774c-.558.677-1.183 1.186-1.876 1.527s-1.452.514-2.274.514c-1.463 0-2.71-.53-3.746-1.59-1.035-1.06-1.553-2.352-1.553-3.87 0-1.487.52-2.76 1.566-3.817 1.045-1.057 2.3-1.586 3.77-1.586.848 0 1.615.182 2.303.542.687.36 1.29.9 1.81 1.624v-1.9h1.31zm-5.313 1.016c-.74 0-1.423.182-2.05.545s-1.122.875-1.493 1.532c-.37.658-.556 1.354-.556 2.087 0 .727.188 1.422.56 2.086s.874 1.18 1.503 1.55c.63.37 1.305.556 2.025.556.728 0 1.416-.184 2.068-.55.65-.368 1.15-.864 1.502-1.49.352-.626.527-1.33.527-2.114 0-1.195-.396-2.194-1.183-2.998-.786-.803-1.754-1.204-2.905-1.204zM328.866 102.522h1.33v14.318h-1.33v-14.318zM341.657 113.413l1.12.588c-.368.724-.792 1.306-1.274 1.75-.48.44-1.022.778-1.625 1.01-.602.23-1.283.347-2.043.347-1.686 0-3.003-.553-3.953-1.657-.95-1.104-1.426-2.353-1.426-3.745 0-1.31.402-2.48 1.207-3.504 1.02-1.304 2.385-1.956 4.096-1.956 1.76 0 3.167.668 4.22 2.004.746.943 1.127 2.12 1.14 3.532h-9.296c.025 1.2.408 2.184 1.15 2.95.74.768 1.657 1.152 2.748 1.152.525 0 1.037-.092 1.535-.275.497-.182.92-.426 1.27-.728.347-.304.723-.793 1.13-1.467zm0-2.783c-.178-.708-.436-1.275-.775-1.7s-.787-.765-1.346-1.024c-.557-.26-1.144-.39-1.758-.39-1.015 0-1.886.327-2.615.98-.53.474-.935 1.186-1.207 2.135h7.7zM361.292 102.522v14.318h-1.31v-1.775c-.558.677-1.183 1.186-1.876 1.527s-1.45.514-2.273.514c-1.463 0-2.71-.53-3.746-1.59-1.035-1.06-1.553-2.352-1.553-3.87 0-1.487.522-2.76 1.566-3.817 1.045-1.058 2.3-1.587 3.77-1.587.85 0 1.616.182 2.303.542.688.36 1.29.9 1.81 1.624v-5.888h1.31zm-5.313 5.004c-.74 0-1.423.182-2.05.545-.625.364-1.123.875-1.493 1.532-.37.658-.555 1.354-.555 2.087 0 .727.187 1.422.56 2.086s.874 1.18 1.503 1.55c.63.37 1.304.556 2.024.556.727 0 1.416-.184 2.067-.55.65-.368 1.152-.864 1.503-1.49.35-.626.526-1.33.526-2.114 0-1.195-.394-2.194-1.18-2.998-.787-.803-1.757-1.204-2.907-1.204zM373 113.413l1.12.588c-.367.724-.79 1.306-1.273 1.75-.48.44-1.023.778-1.625 1.01s-1.283.347-2.043.347c-1.687 0-3.005-.553-3.954-1.657-.95-1.104-1.426-2.353-1.426-3.745 0-1.31.402-2.48 1.207-3.504 1.02-1.304 2.385-1.956 4.096-1.956 1.762 0 3.168.668 4.22 2.004.747.943 1.128 2.12 1.14 3.532h-9.295c.025 1.2.408 2.184 1.15 2.95.74.768 1.656 1.152 2.747 1.152.526 0 1.038-.092 1.535-.275.497-.182.92-.426 1.27-.728.347-.304.724-.793 1.13-1.467zm0-2.783c-.177-.708-.436-1.275-.774-1.7-.34-.423-.788-.765-1.346-1.024s-1.145-.39-1.76-.39c-1.014 0-1.885.327-2.613.98-.532.474-.936 1.186-1.207 2.135h7.7zM382.133 107.64l-.854.883c-.712-.69-1.406-1.035-2.086-1.035-.432 0-.8.143-1.11.428-.306.285-.46.617-.46.997 0 .335.127.655.38.96.255.31.787.673 1.6 1.09.99.514 1.66 1.008 2.017 1.482.35.48.524 1.02.524 1.623 0 .85-.3 1.566-.895 2.156-.597.588-1.34.883-2.235.883-.596 0-1.165-.13-1.707-.39s-.99-.617-1.346-1.073l.836-.95c.68.767 1.398 1.15 2.16 1.15.533 0 .986-.17 1.36-.513.375-.34.563-.743.563-1.206 0-.38-.123-.718-.37-1.016-.247-.29-.806-.658-1.675-1.102-.933-.48-1.566-.955-1.903-1.424-.336-.47-.505-1.003-.505-1.604 0-.785.27-1.437.805-1.956.535-.52 1.213-.78 2.03-.78.95 0 1.908.467 2.87 1.398zM390.09 102.873h6.998v1.367h-5.603v4.378h5.603v1.367h-5.603v6.855h-1.396v-13.967zM399.76 102.256c.303 0 .563.108.775.323.215.214.322.474.322.777 0 .298-.107.554-.322.77-.213.215-.473.322-.774.322-.295 0-.55-.108-.766-.324-.213-.215-.32-.47-.32-.77 0-.303.107-.562.32-.777.215-.216.47-.324.767-.324zm-.66 4.254h1.33v10.33h-1.33v-10.33zM403.194 106.51h1.33v1.852c.53-.71 1.12-1.24 1.766-1.59.645-.353 1.348-.528 2.107-.528.77 0 1.457.197 2.056.59s1.04.92 1.325 1.586c.284.664.427 1.7.427 3.104v5.318h-1.33v-4.928c0-1.19-.05-1.985-.147-2.384-.154-.684-.45-1.198-.887-1.543-.435-.345-1.005-.518-1.708-.518-.804 0-1.523.265-2.16.797-.637.53-1.056 1.19-1.258 1.975-.127.513-.19 1.45-.19 2.81v3.79h-1.33V106.51zM425.346 106.51v10.33h-1.31v-1.774c-.56.677-1.184 1.186-1.876 1.527-.693.342-1.45.514-2.274.514-1.462 0-2.71-.53-3.746-1.59-1.034-1.06-1.552-2.352-1.552-3.87 0-1.487.52-2.76 1.566-3.817 1.044-1.057 2.3-1.586 3.77-1.586.848 0 1.615.182 2.303.542.686.36 1.29.9 1.81 1.624v-1.9h1.31zm-5.312 1.016c-.74 0-1.424.182-2.05.545-.626.364-1.123.875-1.493 1.532-.368.658-.554 1.354-.554 2.087 0 .727.187 1.422.56 2.086s.874 1.18 1.503 1.55c.628.37 1.304.556 2.024.556.727 0 1.416-.184 2.067-.55s1.152-.864 1.504-1.49c.352-.626.526-1.33.526-2.114 0-1.195-.394-2.194-1.18-2.998-.787-.803-1.756-1.204-2.906-1.204zM428.336 106.51h1.33v1.852c.53-.71 1.12-1.24 1.766-1.59s1.348-.528 2.107-.528c.77 0 1.457.197 2.056.59.598.393 1.04.92 1.324 1.586.285.664.428 1.7.428 3.104v5.318h-1.33v-4.928c0-1.19-.05-1.985-.148-2.384-.153-.684-.45-1.198-.886-1.543s-1.007-.518-1.71-.518c-.803 0-1.523.265-2.16.797-.636.53-1.055 1.19-1.258 1.975-.127.513-.19 1.45-.19 2.81v3.79h-1.33V106.51zM450.223 108.655l-1.055.655c-.91-1.21-2.152-1.813-3.727-1.813-1.257 0-2.302.404-3.134 1.215-.832.81-1.247 1.792-1.247 2.95 0 .75.19 1.46.572 2.123.383.664.908 1.18 1.574 1.546.668.368 1.416.552 2.244.552 1.518 0 2.756-.605 3.717-1.814l1.055.693c-.494.745-1.157 1.32-1.99 1.73-.832.41-1.78.616-2.844.616-1.633 0-2.987-.52-4.063-1.558-1.076-1.038-1.615-2.3-1.615-3.788 0-1 .252-1.93.756-2.787.502-.857 1.194-1.527 2.074-2.008.88-.48 1.863-.723 2.953-.723.684 0 1.344.105 1.98.314s1.175.48 1.617.816c.446.338.823.765 1.133 1.283zM461.475 113.413l1.12.588c-.368.724-.792 1.306-1.274 1.75-.48.44-1.02.778-1.624 1.01-.602.23-1.283.347-2.043.347-1.686 0-3.003-.553-3.953-1.657-.95-1.104-1.426-2.353-1.426-3.745 0-1.31.402-2.48 1.207-3.504 1.02-1.304 2.386-1.956 4.097-1.956 1.762 0 3.168.668 4.22 2.004.747.943 1.128 2.12 1.14 3.532h-9.295c.025 1.2.408 2.184 1.15 2.95.74.768 1.657 1.152 2.748 1.152.525 0 1.037-.092 1.535-.275.497-.182.92-.426 1.27-.728.347-.304.724-.793 1.13-1.467zm0-2.783c-.178-.708-.436-1.275-.775-1.7s-.787-.765-1.346-1.024c-.557-.26-1.144-.39-1.758-.39-1.015 0-1.886.327-2.615.98-.53.474-.934 1.186-1.206 2.135h7.7zM470.608 107.64l-.854.883c-.71-.69-1.406-1.035-2.085-1.035-.433 0-.803.143-1.11.428s-.462.617-.462.997c0 .335.127.655.38.96.255.31.788.673 1.6 1.09.99.514 1.662 1.008 2.017 1.482.35.48.523 1.02.523 1.623 0 .85-.298 1.566-.894 2.156-.597.588-1.34.883-2.235.883-.597 0-1.165-.13-1.708-.39-.54-.26-.99-.617-1.345-1.073l.835-.95c.68.767 1.4 1.15 2.16 1.15.533 0 .987-.17 1.36-.513.376-.34.564-.743.564-1.206 0-.38-.125-.718-.37-1.016-.25-.29-.808-.658-1.677-1.102-.933-.48-1.567-.955-1.903-1.424s-.505-1.003-.505-1.604c0-.785.27-1.437.804-1.956.536-.52 1.213-.78 2.03-.78.952 0 1.91.467 2.872 1.398zM478.366 106.51h1.33v1.9c.524-.724 1.128-1.265 1.81-1.625.685-.36 1.446-.542 2.288-.542 1.467 0 2.722.53 3.766 1.586 1.043 1.057 1.564 2.33 1.564 3.816 0 1.52-.517 2.81-1.55 3.87-1.034 1.06-2.282 1.59-3.743 1.59-.82 0-1.577-.172-2.266-.514-.69-.342-1.313-.85-1.868-1.527v5.554h-1.33v-14.11zm5.317 1.016c-1.15 0-2.117.4-2.903 1.203-.787.803-1.18 1.802-1.18 2.997 0 .783.176 1.488.525 2.115.352.625.854 1.12 1.507 1.488s1.343.55 2.07.55c.714 0 1.384-.185 2.013-.554.63-.37 1.13-.887 1.502-1.55.372-.665.56-1.36.56-2.088 0-.733-.187-1.43-.556-2.087-.368-.656-.866-1.167-1.49-1.53s-1.308-.544-2.047-.544zM491.44 106.51h1.33v4.823c0 1.178.063 1.988.19 2.432.19.633.553 1.133 1.09 1.5.534.367 1.173.55 1.915.55.74 0 1.37-.18 1.887-.536.518-.358.874-.83 1.07-1.41.133-.4.2-1.245.2-2.536v-4.823h1.357v5.07c0 1.426-.167 2.498-.5 3.22-.332.722-.832 1.286-1.5 1.694s-1.505.613-2.512.613c-1.006 0-1.846-.205-2.52-.613-.675-.408-1.178-.978-1.51-1.71-.333-.73-.5-1.83-.5-3.298v-4.976zM503.518 116.84v-14.317h1.33v5.763c.556-.684 1.18-1.194 1.868-1.533s1.444-.51 2.267-.51c1.46 0 2.71.532 3.742 1.593 1.034 1.06 1.55 2.346 1.55 3.86 0 1.493-.52 2.77-1.563 3.825-1.044 1.058-2.3 1.587-3.766 1.587-.842 0-1.604-.18-2.286-.54-.683-.362-1.287-.903-1.812-1.625v1.9h-1.33zm5.317-1.016c.74 0 1.42-.182 2.046-.546.626-.363 1.124-.875 1.493-1.533s.555-1.354.555-2.09-.187-1.434-.56-2.098c-.372-.664-.872-1.182-1.5-1.553-.63-.37-1.3-.555-2.015-.555-.726 0-1.416.184-2.07.554-.652.37-1.154.87-1.506 1.496-.35.627-.525 1.332-.525 2.117 0 1.196.393 2.196 1.18 3 .786.806 1.754 1.207 2.903 1.207zM516.5 102.522h1.328v14.318h-1.33v-14.318zM521.05 102.256c.304 0 .562.108.776.323.214.214.32.474.32.777 0 .298-.106.554-.32.77-.215.215-.473.322-.775.322-.296 0-.55-.108-.765-.324-.215-.215-.322-.47-.322-.77 0-.303.107-.562.322-.777.215-.216.47-.324.766-.324zm-.66 4.254h1.33v10.33h-1.33v-10.33zM534.766 106.51v14.11h-1.31v-5.555c-.558.677-1.183 1.186-1.876 1.527-.692.342-1.45.514-2.273.514-1.463 0-2.71-.53-3.746-1.59-1.034-1.06-1.552-2.352-1.552-3.87 0-1.487.523-2.76 1.567-3.817 1.044-1.058 2.3-1.587 3.77-1.587.85 0 1.616.182 2.302.542.688.36 1.29.9 1.81 1.624v-1.9h1.31zm-5.312 1.016c-.738 0-1.422.182-2.048.545s-1.124.875-1.493 1.532c-.37.658-.555 1.354-.555 2.087 0 .727.186 1.422.56 2.086s.874 1.18 1.503 1.55c.63.37 1.305.556 2.025.556.728 0 1.416-.184 2.067-.55s1.152-.864 1.504-1.49c.35-.626.525-1.33.525-2.114 0-1.195-.392-2.194-1.18-2.998-.786-.803-1.755-1.204-2.906-1.204zM537.578 106.51h1.33v4.823c0 1.178.062 1.988.188 2.432.19.633.554 1.133 1.09 1.5.535.367 1.174.55 1.916.55.74 0 1.37-.18 1.887-.536.517-.358.873-.83 1.07-1.41.132-.4.198-1.245.198-2.536v-4.823h1.358v5.07c0 1.426-.166 2.498-.5 3.22-.33.722-.83 1.286-1.5 1.694s-1.504.613-2.51.613c-1.007 0-1.847-.205-2.522-.613-.674-.408-1.177-.978-1.51-1.71-.332-.73-.498-1.83-.498-3.298v-4.976zM558.267 113.413l1.12.588c-.367.724-.79 1.306-1.273 1.75-.48.44-1.023.778-1.625 1.01s-1.284.347-2.044.347c-1.686 0-3.004-.553-3.953-1.657-.95-1.104-1.426-2.353-1.426-3.745 0-1.31.402-2.48 1.207-3.504 1.02-1.304 2.385-1.956 4.096-1.956 1.762 0 3.168.668 4.22 2.004.747.943 1.128 2.12 1.14 3.532h-9.295c.025 1.2.408 2.184 1.15 2.95.74.768 1.656 1.152 2.747 1.152.526 0 1.038-.092 1.535-.275.497-.182.92-.426 1.27-.728.348-.304.725-.793 1.13-1.467zm0-2.783c-.177-.708-.436-1.275-.774-1.7-.34-.423-.788-.765-1.346-1.024s-1.145-.39-1.76-.39c-1.014 0-1.885.327-2.613.98-.532.474-.936 1.186-1.207 2.135h7.7zM567.4 107.64l-.853.883c-.71-.69-1.405-1.035-2.085-1.035-.432 0-.8.143-1.11.428-.306.285-.46.617-.46.997 0 .335.127.655.38.96.255.31.787.673 1.6 1.09.99.514 1.66 1.008 2.017 1.482.35.48.522 1.02.522 1.623 0 .85-.3 1.566-.895 2.156-.596.588-1.34.883-2.234.883-.596 0-1.165-.13-1.707-.39s-.99-.617-1.346-1.073l.836-.95c.68.767 1.398 1.15 2.16 1.15.533 0 .986-.17 1.36-.513.375-.34.563-.743.563-1.206 0-.38-.125-.718-.372-1.016-.247-.29-.806-.658-1.675-1.102-.933-.48-1.566-.955-1.903-1.424-.336-.47-.505-1.003-.505-1.604 0-.785.27-1.437.805-1.956.535-.52 1.213-.78 2.03-.78.95 0 1.908.467 2.87 1.398zM181.877 102.55v14.32h-1.31v-1.776c-.558.677-1.183 1.186-1.876 1.527-.692.343-1.45.515-2.273.515-1.462 0-2.71-.53-3.746-1.59-1.034-1.06-1.55-2.352-1.55-3.87 0-1.487.52-2.76 1.565-3.817 1.044-1.057 2.3-1.586 3.77-1.586.848 0 1.616.182 2.303.542.687.36 1.29.9 1.81 1.624v-5.887h1.31zm-5.312 5.005c-.74 0-1.423.182-2.05.545-.625.363-1.123.874-1.493 1.53-.37.66-.555 1.355-.555 2.088 0 .728.187 1.423.56 2.087.373.664.874 1.18 1.503 1.55.63.37 1.304.556 2.025.556.727 0 1.417-.183 2.068-.55.65-.367 1.152-.863 1.503-1.488.35-.627.526-1.332.526-2.115 0-1.195-.394-2.194-1.18-2.998-.787-.804-1.757-1.205-2.907-1.205z"/><g><path d="M6.47 10.417H0V0h6.47v10.417zM0 66.82V16.338h6.47V66.82H0zM56.586 24.23c2.05-2.905 4.596-5.116 7.64-6.63 3.045-1.515 6.45-2.272 10.212-2.272 6.853 0 11.84 2.058 14.96 6.172 3.122 4.116 4.682 10.732 4.682 19.85v25.47h-6.195v-26.8c0-6.67-1.102-11.42-3.304-14.25s-5.797-4.246-10.784-4.246c-2.876 0-5.408.59-7.595 1.767-2.187 1.18-3.923 2.87-5.207 5.072-.765 1.376-1.316 2.945-1.652 4.704-.336 1.76-.504 4.826-.504 9.2V66.82h-6.104V38.55c0-5.813-1.178-10.104-3.534-12.873-2.356-2.77-5.966-4.153-10.83-4.153-2.938 0-5.516.59-7.734 1.767-2.22 1.18-3.97 2.87-5.254 5.072-.796 1.376-1.354 2.945-1.675 4.704s-.482 4.826-.482 9.2V66.82h-6.38V16.338h6.38v5.736c1.928-2.233 4.2-3.916 6.815-5.048 2.616-1.132 5.576-1.698 8.88-1.698 3.824 0 7.312.803 10.463 2.41 3.15 1.606 5.554 3.77 7.206 6.493zM104.27 16.338h6.378v8.26c1.836-2.845 4.46-5.116 7.87-6.814 3.412-1.698 7.045-2.547 10.9-2.547 7.618 0 13.93 2.532 18.93 7.595 5.003 5.064 7.504 11.39 7.504 18.977 0 7.404-2.47 13.645-7.412 18.724-4.94 5.08-11.114 7.618-18.518 7.618-4.1 0-7.794-.795-11.083-2.386-3.29-1.59-6.02-3.9-8.193-6.93V83.16h-6.38V16.337zm6.377 24.92c0 5.75 1.896 10.67 5.69 14.754 3.794 4.084 8.262 6.126 13.4 6.126 5.294 0 9.837-1.935 13.63-5.805 3.794-3.87 5.69-8.62 5.69-14.25 0-5.904-1.903-10.854-5.712-14.846s-8.42-5.99-13.837-5.99c-4.987 0-9.378 2.005-13.17 6.013-3.794 4.01-5.69 8.674-5.69 13.997zM160.9 41.625c0-7.404 2.54-13.737 7.618-19 5.08-5.262 11.09-7.894 18.036-7.894 7.312 0 13.545 2.587 18.7 7.757 5.156 5.17 7.734 11.335 7.734 18.495 0 7.526-2.524 13.95-7.572 19.275-5.048 5.323-11.167 7.985-18.357 7.985-7.314 0-13.5-2.608-18.565-7.824-5.064-5.216-7.595-11.48-7.595-18.793zm6.792-.092c0 5.813 1.85 10.686 5.553 14.617 3.702 3.932 8.307 5.897 13.814 5.897 5.414 0 9.957-1.965 13.63-5.897 3.67-3.93 5.506-8.834 5.506-14.71 0-5.965-1.86-10.868-5.576-14.707-3.717-3.84-8.437-5.76-14.158-5.76-5.14 0-9.554 1.974-13.24 5.92-3.687 3.947-5.53 8.827-5.53 14.64zM225.013 66.82V22.854h-9.592v-6.517h9.593V0h6.47v16.338h9.593v6.517h-9.592V66.82h-6.47zM243.05 50.94h6.653v.185c0 3.15.902 5.76 2.708 7.825 1.806 2.065 4.04 3.098 6.7 3.098 2.54 0 4.65-.795 6.334-2.386 1.682-1.59 2.524-3.595 2.524-6.012 0-2.417-.666-4.36-1.996-5.828-1.33-1.47-3.74-2.845-7.228-4.13-5.6-1.988-9.255-4.023-10.97-6.104-1.713-2.08-2.57-4.864-2.57-8.352 0-3.947 1.43-7.297 4.292-10.05 2.86-2.754 6.325-4.13 10.395-4.13 4.315 0 7.74 1.223 10.28 3.67 2.54 2.448 3.902 5.86 4.085 10.234h-6.93c-.153-2.387-.91-4.237-2.27-5.553-1.363-1.315-3.22-1.974-5.577-1.974-2.11 0-3.87.71-5.277 2.134-1.407 1.423-2.11 3.19-2.11 5.3 0 1.5.29 2.762.872 3.787.58 1.025 1.544 1.95 2.89 2.776 1.225.765 3.007 1.5 5.348 2.203 2.34.705 3.908 1.224 4.704 1.56 3.15 1.348 5.468 3.138 6.953 5.37 1.483 2.234 2.226 5.08 2.226 8.537 0 4.345-1.514 7.94-4.543 10.785-3.03 2.845-6.87 4.268-11.52 4.268-4.743 0-8.552-1.552-11.427-4.658-2.877-3.107-4.392-7.29-4.544-12.554z" fill="#0083AE"/><path d="M290.823 66.82h-6.563V54.612h6.563V66.82zM314.64 70.95c.98 2.937 2.755 5.224 5.325 6.86s5.69 2.456 9.36 2.456c5.753 0 10.365-1.913 13.838-5.737 3.472-3.825 5.21-8.934 5.21-15.33v-1.33c-2.45 3.335-5.232 5.852-8.354 7.55-3.122 1.697-6.564 2.546-10.327 2.546-7.588 0-13.89-2.53-18.908-7.595-5.018-5.062-7.525-11.373-7.525-18.93 0-7.435 2.48-13.676 7.434-18.724 4.957-5.048 11.09-7.572 18.404-7.572 4.252 0 7.932.765 11.037 2.295 3.104 1.53 5.852 3.916 8.237 7.158v-8.26h6.333v42.128c0 8.812-2.21 15.695-6.63 20.652-4.423 4.956-10.52 7.435-18.29 7.435-5.72 0-10.632-1.416-14.73-4.245-4.102-2.83-6.747-6.616-7.94-11.358h7.526zm-4.496-29.784c0 5.905 1.874 10.846 5.622 14.823 3.747 3.977 8.268 5.965 13.56 5.965 4.987 0 9.394-1.996 13.218-5.99s5.737-8.68 5.737-14.065c0-5.75-1.88-10.662-5.645-14.73-3.763-4.07-8.2-6.105-13.31-6.105-5.26 0-9.774 1.935-13.537 5.805-3.762 3.87-5.644 8.636-5.644 14.296zM362.002 41.625c0-7.404 2.54-13.737 7.618-19 5.08-5.262 11.09-7.894 18.036-7.894 7.313 0 13.545 2.587 18.7 7.757 5.156 5.17 7.733 11.335 7.733 18.495 0 7.526-2.524 13.95-7.573 19.275-5.048 5.323-11.167 7.985-18.356 7.985-7.312 0-13.5-2.608-18.562-7.824-5.064-5.216-7.596-11.48-7.596-18.793zm6.793-.092c0 5.813 1.85 10.686 5.553 14.617 3.7 3.932 8.307 5.897 13.813 5.897 5.416 0 9.96-1.965 13.63-5.897 3.673-3.93 5.51-8.834 5.51-14.71 0-5.965-1.86-10.868-5.577-14.707-3.718-3.84-8.438-5.76-14.158-5.76-5.14 0-9.554 1.974-13.24 5.92-3.688 3.947-5.53 8.827-5.53 14.64zM421.526 16.338h6.38v26.8c0 6.885 1.116 11.757 3.35 14.618 2.232 2.86 5.903 4.29 11.014 4.29 2.907 0 5.462-.587 7.665-1.766 2.202-1.178 3.977-2.883 5.322-5.117.766-1.315 1.316-2.868 1.652-4.658.336-1.79.505-4.902.505-9.34V16.34h6.47V66.82h-6.47v-5.46c-1.96 2.386-4.146 4.114-6.563 5.185s-5.34 1.606-8.765 1.606c-7.283 0-12.53-1.964-15.742-5.896-3.213-3.93-4.818-10.456-4.818-19.573V16.34zM493.9 66.82h-5.92l-19.735-50.482h6.838l16.154 40.707 16.292-40.707h7.02L493.9 66.82z" fill="#8F8F8F"/><path d="M520.012 66.82h-6.563V54.612h6.562V66.82zM544.197 66.82h-6.287V21.982h-6.746v-5.645h6.47V14.96c0-5.354 1.355-9.316 4.063-11.886s6.86-3.855 12.46-3.855h.597v5.828c-3.886.062-6.632.834-8.238 2.317-1.605 1.484-2.41 4.016-2.41 7.595v1.377h10.648v5.645h-10.556V66.82zM567.51 66.82h-6.563V16.338h6.104v5.828c1.59-2.233 3.328-3.87 5.21-4.91 1.88-1.04 4.076-1.59 6.586-1.652l.045 7.02c-4.067.368-6.98 1.584-8.74 3.65-1.76 2.064-2.64 5.422-2.64 10.073V66.82z" fill="#BCBCBC"/></g></svg>