<?xml version="1.0" encoding="UTF-8" standalone="no"?>
<svg
   xmlns:dc="http://purl.org/dc/elements/1.1/"
   xmlns:cc="http://creativecommons.org/ns#"
   xmlns:rdf="http://www.w3.org/1999/02/22-rdf-syntax-ns#"
   xmlns:svg="http://www.w3.org/2000/svg"
   xmlns="http://www.w3.org/2000/svg"
   xmlns:sodipodi="http://sodipodi.sourceforge.net/DTD/sodipodi-0.dtd"
   xmlns:inkscape="http://www.inkscape.org/namespaces/inkscape"
   height="54.151mm"
   width="156.89mm"
   version="1.1"
   viewBox="0 0 555.89436 191.875"
   id="svg2"
   inkscape:version="0.91 r13725"
   sodipodi:docname="logo.svg">
  <metadata
     id="metadata345">
    <rdf:RDF>
      <cc:Work
         rdf:about="">
        <dc:format>image/svg+xml</dc:format>
        <dc:type
           rdf:resource="http://purl.org/dc/dcmitype/StillImage" />
        <dc:title />
      </cc:Work>
    </rdf:RDF>
  </metadata>
  <sodipodi:namedview
     pagecolor="#ffffff"
     bordercolor="#666666"
     borderopacity="1"
     objecttolerance="10"
     gridtolerance="10"
     guidetolerance="10"
     inkscape:pageopacity="0"
     inkscape:pageshadow="2"
     inkscape:window-width="1920"
     inkscape:window-height="1018"
     id="namedview343"
     showgrid="false"
     inkscape:zoom="3.5717254"
     inkscape:cx="117.37368"
     inkscape:cy="78.827016"
     inkscape:window-x="-8"
     inkscape:window-y="-8"
     inkscape:window-maximized="1"
     inkscape:current-layer="g9" />
  <defs
     id="defs4">
    <clipPath
       id="clipPath3249"
       clipPathUnits="userSpaceOnUse">
      <path
         d="m172.5 1109.2h848.41v284.73h-848.41v-284.73z"
         id="path7" />
    </clipPath>
  </defs>
  <g
     transform="translate(-47.598 -299.28)"
     id="g9">
    <g
       transform="matrix(.70962 0 0 .70962 191.83 347.7)"
       id="g11">
      <path
         style="fill:#5889aa"
         d="m50.633 106.51h1.329v4.823c0 1.178.063 1.988.19 2.432.19.633.553 1.133 1.089 1.5s1.174.551 1.916.551 1.371-.18 1.888-.537.874-.828 1.07-1.41c.133-.398.2-1.244.2-2.535v-4.823h1.358v5.07c0 1.425-.166 2.497-.499 3.219s-.833 1.286-1.5 1.694c-.668.408-1.505.613-2.512.613s-1.847-.205-2.521-.613-1.177-.978-1.51-1.709c-.332-.73-.498-1.83-.498-3.299v-4.976z"
         id="path13" />
      <path
         style="fill:#5889aa"
         d="m62.625 106.51h1.329v1.852c.532-.709 1.121-1.239 1.766-1.591s1.348-.527 2.108-.527c.772 0 1.458.197 2.056.59s1.04.92 1.325 1.586c.285.664.427 1.699.427 3.104v5.318h-1.33v-4.928c0-1.191-.049-1.985-.148-2.384-.154-.684-.449-1.198-.886-1.543s-1.006-.518-1.709-.518c-.804 0-1.524.266-2.161.798-.636.531-1.056 1.189-1.258 1.975-.127.513-.19 1.449-.19 2.811v3.789h-1.329v-10.332z"
         id="path15" />
      <path
         style="fill:#5889aa"
         d="m85.062 107.64-.854.883c-.711-.689-1.406-1.035-2.084-1.035-.432 0-.802.143-1.109.428s-.461.617-.461.997c0 .335.126.655.38.959.254.31.787.674 1.599 1.092.99.513 1.662 1.007 2.017 1.481.349.48.523 1.021.523 1.623 0 .849-.298 1.566-.894 2.156-.596.588-1.341.883-2.235.883-.596 0-1.165-.13-1.707-.39-.542-.259-.99-.617-1.345-1.073l.835-.949c.679.766 1.399 1.148 2.16 1.148.533 0 .987-.17 1.361-.512s.562-.744.562-1.207c0-.379-.124-.718-.371-1.016-.248-.291-.806-.658-1.675-1.102-.933-.48-1.567-.955-1.903-1.424s-.504-1.003-.504-1.604c0-.785.268-1.437.804-1.956.536-.52 1.213-.779 2.031-.779.949 0 1.907.466 2.87 1.397z"
         id="path17" />
      <path
         style="fill:#5889aa"
         d="m87.877 102.26c.302 0 .561.108.775.323s.322.475.322.778c0 .298-.107.554-.322.769-.214.216-.473.323-.775.323-.296 0-.552-.107-.766-.323-.214-.215-.321-.471-.321-.769 0-.304.107-.563.321-.778.215-.215.47-.323.766-.323zm-.66 4.254h1.33v10.331h-1.33v-10.331z"
         id="path19" />
      <path
         style="fill:#5889aa"
         d="m92.468 102.67h1.329v3.836h2.108v1.149h-2.108v9.182h-1.329v-9.182h-1.813v-1.149h1.813v-3.836z"
         id="path21" />
      <path
         style="fill:#5889aa"
         d="m106.6 113.41 1.121.588c-.368.723-.792 1.305-1.274 1.748-.481.442-1.023.779-1.625 1.011s-1.283.347-2.043.347c-1.685 0-3.003-.553-3.953-1.657-.951-1.104-1.426-2.353-1.426-3.745 0-1.311.402-2.479 1.207-3.504 1.02-1.305 2.385-1.957 4.096-1.957 1.762 0 3.168.668 4.22 2.004.748.943 1.128 2.121 1.141 3.532h-9.296c.025 1.2.409 2.184 1.15 2.951s1.657 1.151 2.748 1.151c.526 0 1.038-.092 1.535-.275.498-.182.92-.426 1.269-.728.347-.303.724-.792 1.13-1.466zm0-2.783c-.177-.708-.436-1.275-.775-1.699s-.788-.766-1.345-1.025-1.144-.389-1.759-.389c-1.014 0-1.885.326-2.614.978-.532.475-.935 1.187-1.208 2.136h7.701z"
         id="path23" />
      <path
         style="fill:#5889aa"
         d="m126.23 102.52v14.318h-1.311v-1.775c-.557.677-1.182 1.186-1.875 1.527-.693.342-1.451.514-2.274.514-1.462 0-2.71-.53-3.746-1.591-1.035-1.06-1.552-2.351-1.552-3.869 0-1.487.522-2.76 1.566-3.817s2.301-1.586 3.77-1.586c.848 0 1.616.182 2.303.542s1.29.901 1.809 1.624v-5.887h1.31zm-5.312 5.004c-.74 0-1.423.182-2.049.545s-1.124.874-1.494 1.531c-.37.658-.555 1.354-.555 2.087 0 .728.187 1.423.56 2.087s.874 1.18 1.503 1.551c.629.369 1.304.555 2.025.555.727 0 1.417-.184 2.068-.551s1.152-.863 1.503-1.488c.351-.627.526-1.332.526-2.115 0-1.195-.394-2.194-1.181-2.998-.786-.803-1.756-1.204-2.906-1.204z"
         id="path25" />
      <path
         style="fill:#5889aa"
         d="m137.94 113.41 1.121.588c-.368.723-.792 1.305-1.274 1.748-.481.442-1.023.779-1.625 1.011s-1.283.347-2.043.347c-1.685 0-3.003-.553-3.953-1.657-.951-1.104-1.426-2.353-1.426-3.745 0-1.311.402-2.479 1.207-3.504 1.02-1.305 2.385-1.957 4.096-1.957 1.762 0 3.168.668 4.22 2.004.748.943 1.128 2.121 1.141 3.532h-9.296c.025 1.2.409 2.184 1.15 2.951s1.657 1.151 2.748 1.151c.526 0 1.038-.092 1.535-.275.498-.182.92-.426 1.269-.728.347-.303.724-.792 1.13-1.466zm0-2.783c-.177-.708-.436-1.275-.775-1.699s-.788-.766-1.345-1.025-1.144-.389-1.759-.389c-1.014 0-1.885.326-2.614.978-.532.475-.935 1.187-1.208 2.136h7.701z"
         id="path27" />
      <path
         style="fill:#5889aa"
         d="m147.06 102.52h1.33v14.318h-1.33v-14.318z"
         id="path29" />
      <path
         style="fill:#5889aa"
         d="m161.45 106.51v10.331h-1.311v-1.775c-.557.677-1.182 1.186-1.875 1.527-.693.342-1.451.514-2.274.514-1.462 0-2.711-.53-3.746-1.591-1.035-1.06-1.552-2.351-1.552-3.869 0-1.487.522-2.76 1.566-3.817s2.301-1.586 3.77-1.586c.848 0 1.616.182 2.303.542s1.29.901 1.809 1.624v-1.899h1.31zm-5.313 1.016c-.74 0-1.423.182-2.049.545s-1.124.874-1.494 1.531c-.37.658-.555 1.354-.555 2.087 0 .728.187 1.423.56 2.087s.874 1.18 1.503 1.551c.629.369 1.304.555 2.025.555.728 0 1.417-.184 2.068-.551s1.152-.863 1.503-1.488c.351-.627.526-1.332.526-2.115 0-1.195-.394-2.194-1.181-2.998-.786-.803-1.755-1.204-2.906-1.204z"
         id="path31" />
      <path
         style="fill:#333333"
         d="m170.04 116.84v-13.968h2.896c2.089 0 3.605.168 4.548.503 1.354.475 2.414 1.298 3.176 2.469.763 1.172 1.144 2.567 1.144 4.188 0 1.399-.302 2.631-.907 3.693-.604 1.064-1.39 1.849-2.354 2.355-.966.506-2.319.76-4.06.76h-4.443zm1.339-1.32h1.614c1.931 0 3.27-.12 4.017-.36 1.051-.342 1.877-.956 2.478-1.845.602-.889.902-1.976.902-3.26 0-1.347-.326-2.498-.978-3.453s-1.561-1.609-2.725-1.964c-.874-.265-2.313-.398-4.32-.398h-.987v11.28z"
         id="path33" />
      <path
         style="fill:#333333"
         d="m184.76 102.26c.302 0 .561.108.775.323s.322.475.322.778c0 .298-.107.554-.322.769-.214.216-.473.323-.775.323-.296 0-.552-.107-.766-.323-.214-.215-.321-.471-.321-.769 0-.304.107-.563.321-.778.215-.215.47-.323.766-.323zm-.66 4.254h1.33v10.331h-1.33v-10.331z"
         id="path35" />
      <path
         style="fill:#333333"
         d="m187.68 106.51h1.358v1.51c.405-.595.832-1.04 1.282-1.334.449-.294.917-.442 1.405-.442.367 0 .76.117 1.177.352l-.693 1.121c-.279-.121-.513-.181-.703-.181-.443 0-.871.183-1.282.546-.411.364-.725.93-.94 1.695-.165.588-.247 1.778-.247 3.57v3.494h-1.358v-10.331z"
         id="path37" />
      <path
         style="fill:#333333"
         d="m202.73 113.41 1.121.588c-.368.723-.792 1.305-1.274 1.748-.481.442-1.023.779-1.625 1.011s-1.283.347-2.043.347c-1.685 0-3.003-.553-3.953-1.657-.951-1.104-1.426-2.353-1.426-3.745 0-1.311.402-2.479 1.207-3.504 1.02-1.305 2.385-1.957 4.096-1.957 1.762 0 3.168.668 4.22 2.004.748.943 1.128 2.121 1.141 3.532h-9.296c.025 1.2.409 2.184 1.15 2.951s1.657 1.151 2.748 1.151c.526 0 1.038-.092 1.535-.275.498-.182.92-.426 1.269-.728.348-.303.725-.792 1.13-1.466zm0-2.783c-.177-.708-.436-1.275-.775-1.699s-.788-.766-1.345-1.025-1.144-.389-1.759-.389c-1.014 0-1.885.326-2.614.978-.532.475-.935 1.187-1.208 2.136h7.701z"
         id="path39" />
      <path
         style="fill:#333333"
         d="m216.7 108.66-1.054.655c-.911-1.209-2.153-1.813-3.728-1.813-1.258 0-2.303.404-3.134 1.215-.832.809-1.247 1.792-1.247 2.949 0 .752.191 1.461.574 2.124.382.664.907 1.179 1.574 1.546s1.415.551 2.243.551c1.518 0 2.757-.605 3.718-1.814l1.054.693c-.494.744-1.157 1.32-1.989 1.73s-1.78.615-2.844.615c-1.633 0-2.988-.52-4.063-1.558-1.076-1.038-1.614-2.301-1.614-3.788 0-1 .251-1.93.755-2.787.503-.857 1.195-1.527 2.075-2.008.879-.481 1.864-.723 2.953-.723.684 0 1.344.105 1.98.314s1.176.48 1.619.816c.442.338.818.765 1.128 1.283z"
         id="path41" />
      <path
         style="fill:#333333"
         d="m220.41 102.67h1.329v3.836h2.108v1.149h-2.108v9.182h-1.329v-9.182h-1.813v-1.149h1.813v-3.836z"
         id="path43" />
      <path
         style="fill:#333333"
         d="m226.31 102.26c.302 0 .561.108.775.323s.322.475.322.778c0 .298-.107.554-.322.769-.214.216-.473.323-.775.323-.296 0-.552-.107-.766-.323-.214-.215-.321-.471-.321-.769 0-.304.107-.563.321-.778s.469-.323.766-.323zm-.66 4.254h1.33v10.331h-1.33v-10.331z"
         id="path45" />
      <path
         style="fill:#333333"
         d="m234.63 106.24c1.592 0 2.911.576 3.957 1.729.951 1.051 1.427 2.295 1.427 3.732 0 1.443-.502 2.704-1.508 3.783-1.005 1.079-2.297 1.619-3.876 1.619-1.585 0-2.88-.54-3.885-1.619s-1.508-2.34-1.508-3.783c0-1.432.476-2.672 1.427-3.723 1.046-1.158 2.368-1.738 3.966-1.738zm-.005 1.301c-1.105 0-2.055.409-2.849 1.226-.794.816-1.191 1.804-1.191 2.962 0 .748.181 1.443.543 2.09.362.646.851 1.144 1.467 1.495s1.292.526 2.029.526 1.414-.176 2.03-.526c.616-.352 1.105-.85 1.467-1.495.362-.646.543-1.342.543-2.09 0-1.158-.399-2.146-1.196-2.962-.796-.817-1.744-1.226-2.843-1.226z"
         id="path47" />
      <path
         style="fill:#333333"
         d="m242.47 106.51h1.329v1.852c.532-.709 1.121-1.239 1.766-1.591s1.348-.527 2.108-.527c.772 0 1.458.197 2.056.59s1.04.92 1.325 1.586c.285.664.427 1.699.427 3.104v5.318h-1.33v-4.928c0-1.191-.049-1.985-.148-2.384-.154-.684-.449-1.198-.886-1.543s-1.006-.518-1.709-.518c-.804 0-1.524.266-2.161.798-.636.531-1.056 1.189-1.258 1.975-.127.513-.19 1.449-.19 2.811v3.789h-1.329v-10.332z"
         id="path49" />
      <path
         style="fill:#333333"
         d="m268.62 106.51h1.329v8.231c0 1.45-.126 2.511-.38 3.182-.348.949-.953 1.681-1.813 2.193s-1.896.77-3.105.77c-.886 0-1.682-.126-2.388-.377-.706-.25-1.28-.587-1.724-1.01-.443-.422-.851-1.039-1.225-1.852h1.443c.393.684.9 1.189 1.521 1.52.621.328 1.391.493 2.31.493.906 0 1.671-.169 2.296-.506.624-.338 1.069-.763 1.335-1.272.266-.512.399-1.336.399-2.475v-.532c-.5.633-1.112 1.118-1.834 1.458-.723.338-1.489.508-2.3.508-.95 0-1.844-.236-2.68-.708s-1.483-1.106-1.939-1.903c-.456-.798-.684-1.674-.684-2.631 0-.955.237-1.846.713-2.672.475-.826 1.132-1.48 1.972-1.961.839-.481 1.725-.723 2.656-.723.773 0 1.494.16 2.163.48.668.319 1.313.846 1.934 1.58v-1.793zm-3.922 1.016c-.753 0-1.453.182-2.099.545-.646.364-1.152.867-1.519 1.51s-.551 1.338-.551 2.084c0 1.134.38 2.07 1.139 2.811.76.741 1.744 1.111 2.953 1.111 1.222 0 2.205-.367 2.948-1.102s1.116-1.699 1.116-2.896c0-.777-.171-1.473-.513-2.084-.342-.61-.826-1.093-1.453-1.447-.625-.355-1.299-.532-2.021-.532z"
         id="path51" />
      <path
         style="fill:#333333"
         d="m281.5 113.41 1.12.588c-.367.723-.791 1.305-1.273 1.748-.481.442-1.023.779-1.625 1.011s-1.283.347-2.043.347c-1.686 0-3.003-.553-3.954-1.657s-1.426-2.353-1.426-3.745c0-1.311.402-2.479 1.207-3.504 1.02-1.305 2.385-1.957 4.096-1.957 1.762 0 3.168.668 4.219 2.004.748.943 1.129 2.121 1.141 3.532h-9.295c.025 1.2.409 2.184 1.15 2.951s1.657 1.151 2.748 1.151c.526 0 1.038-.092 1.535-.275.497-.182.921-.426 1.269-.728.348-.303.725-.792 1.131-1.466zm0-2.783c-.177-.708-.436-1.275-.774-1.699-.34-.424-.788-.766-1.346-1.025s-1.145-.389-1.759-.389c-1.015 0-1.886.326-2.614.978-.532.475-.935 1.187-1.208 2.136h7.701zm-3.201-8.963h2.042l-2.802 2.925h-1.31l2.07-2.925z"
         id="path53" />
      <path
         style="fill:#333333"
         d="m285.44 106.51h1.329v1.852c.532-.709 1.12-1.239 1.767-1.591.645-.352 1.348-.527 2.107-.527.771 0 1.457.197 2.056.59s1.04.92 1.325 1.586c.284.664.427 1.699.427 3.104v5.318h-1.329v-4.928c0-1.191-.05-1.985-.148-2.384-.154-.684-.449-1.198-.887-1.543-.436-.345-1.006-.518-1.709-.518-.804 0-1.523.266-2.16.798-.637.531-1.056 1.189-1.258 1.975-.127.513-.19 1.449-.19 2.811v3.789h-1.329v-10.332z"
         id="path55" />
      <path
         style="fill:#333333"
         d="m305.99 113.41 1.121.588c-.368.723-.793 1.305-1.274 1.748-.481.442-1.022.779-1.625 1.011s-1.283.347-2.044.347c-1.685 0-3.002-.553-3.953-1.657-.95-1.104-1.426-2.353-1.426-3.745 0-1.311.402-2.479 1.207-3.504 1.021-1.305 2.386-1.957 4.096-1.957 1.762 0 3.168.668 4.221 2.004.747.943 1.127 2.121 1.141 3.532h-9.297c.025 1.2.409 2.184 1.15 2.951.742.767 1.658 1.151 2.748 1.151.525 0 1.037-.092 1.535-.275.498-.182.92-.426 1.27-.728.346-.303.723-.792 1.13-1.466zm0-2.783c-.178-.708-.436-1.275-.775-1.699s-.787-.766-1.345-1.025-1.144-.389-1.759-.389c-1.014 0-1.885.326-2.614.978-.532.475-.935 1.187-1.208 2.136h7.701zm-3.2-8.963h2.041l-2.801 2.925h-1.311l2.071-2.925z"
         id="path57" />
      <path
         style="fill:#333333"
         d="m309.43 106.51h1.357v1.51c.404-.595.832-1.04 1.281-1.334s.918-.442 1.406-.442c.367 0 .76.117 1.177.352l-.692 1.121c-.279-.121-.514-.181-.703-.181-.443 0-.871.183-1.282.546-.411.364-.725.93-.94 1.695-.164.588-.246 1.778-.246 3.57v3.494h-1.357v-10.331z"
         id="path59" />
      <path
         style="fill:#333333"
         d="m326.08 106.51v10.331h-1.311v-1.775c-.557.677-1.182 1.186-1.875 1.527s-1.451.514-2.273.514c-1.463 0-2.711-.53-3.746-1.591-1.035-1.06-1.553-2.351-1.553-3.869 0-1.487.521-2.76 1.566-3.817s2.301-1.586 3.77-1.586c.848 0 1.615.182 2.303.542.687.36 1.289.901 1.809 1.624v-1.899h1.31zm-5.313 1.016c-.74 0-1.423.182-2.049.545s-1.123.874-1.494 1.531c-.369.658-.555 1.354-.555 2.087 0 .728.188 1.423.561 2.087s.873 1.18 1.502 1.551c.63.369 1.305.555 2.025.555.728 0 1.416-.184 2.068-.551.65-.367 1.151-.863 1.502-1.488.352-.627.527-1.332.527-2.115 0-1.195-.395-2.194-1.182-2.998-.786-.803-1.754-1.204-2.905-1.204z"
         id="path61" />
      <path
         style="fill:#333333"
         d="m328.87 102.52h1.33v14.318h-1.33v-14.318z"
         id="path63" />
      <path
         style="fill:#333333"
         d="m341.66 113.41 1.12.588c-.368.723-.792 1.305-1.274 1.748-.48.442-1.022.779-1.625 1.011-.602.231-1.283.347-2.043.347-1.686 0-3.003-.553-3.953-1.657-.951-1.104-1.426-2.353-1.426-3.745 0-1.311.402-2.479 1.207-3.504 1.02-1.305 2.385-1.957 4.096-1.957 1.762 0 3.168.668 4.22 2.004.747.943 1.128 2.121 1.141 3.532h-9.296c.025 1.2.408 2.184 1.15 2.951.741.767 1.657 1.151 2.748 1.151.525 0 1.037-.092 1.535-.275.497-.182.92-.426 1.269-.728.348-.303.724-.792 1.131-1.466zm0-2.783c-.178-.708-.436-1.275-.775-1.699s-.787-.766-1.346-1.025c-.557-.26-1.144-.389-1.758-.389-1.015 0-1.886.326-2.615.978-.531.475-.935 1.187-1.207 2.136h7.701z"
         id="path65" />
      <path
         style="fill:#333333"
         d="m361.29 102.52v14.318h-1.311v-1.775c-.557.677-1.182 1.186-1.875 1.527s-1.451.514-2.273.514c-1.463 0-2.711-.53-3.746-1.591-1.035-1.06-1.553-2.351-1.553-3.869 0-1.487.522-2.76 1.566-3.817 1.045-1.057 2.301-1.586 3.77-1.586.849 0 1.616.182 2.303.542.688.36 1.29.901 1.809 1.624v-5.887h1.31zm-5.313 5.004c-.739 0-1.422.182-2.049.545-.625.363-1.123.874-1.493 1.531-.37.658-.555 1.354-.555 2.087 0 .728.187 1.423.56 2.087s.874 1.18 1.503 1.551c.63.369 1.304.555 2.024.555.728 0 1.417-.184 2.068-.551.65-.367 1.152-.863 1.503-1.488.351-.627.526-1.332.526-2.115 0-1.195-.394-2.194-1.181-2.998-.786-.803-1.756-1.204-2.906-1.204z"
         id="path67" />
      <path
         style="fill:#333333"
         d="m373 113.41 1.12.588c-.367.723-.791 1.305-1.273 1.748-.481.442-1.023.779-1.625 1.011s-1.283.347-2.043.347c-1.686 0-3.004-.553-3.953-1.657-.951-1.104-1.426-2.353-1.426-3.745 0-1.311.402-2.479 1.207-3.504 1.02-1.305 2.385-1.957 4.096-1.957 1.762 0 3.168.668 4.219 2.004.748.943 1.129 2.121 1.141 3.532h-9.295c.025 1.2.408 2.184 1.15 2.951.74.767 1.656 1.151 2.747 1.151.526 0 1.038-.092 1.535-.275.497-.182.921-.426 1.269-.728.348-.303.725-.792 1.131-1.466zm0-2.783c-.177-.708-.436-1.275-.774-1.699-.34-.424-.788-.766-1.346-1.025s-1.145-.389-1.759-.389c-1.015 0-1.886.326-2.614.978-.532.475-.936 1.187-1.207 2.136h7.7z"
         id="path69" />
      <path
         style="fill:#333333"
         d="m382.13 107.64-.854.883c-.711-.689-1.405-1.035-2.085-1.035-.432 0-.801.143-1.109.428-.307.285-.461.617-.461.997 0 .335.127.655.381.959.254.31.786.674 1.598 1.092.99.513 1.662 1.007 2.018 1.481.35.48.523 1.021.523 1.623 0 .849-.299 1.566-.895 2.156-.596.588-1.34.883-2.234.883-.596 0-1.165-.13-1.707-.39-.542-.259-.99-.617-1.346-1.073l.836-.949c.679.766 1.398 1.148 2.16 1.148.533 0 .986-.17 1.361-.512.374-.342.562-.744.562-1.207 0-.379-.124-.718-.371-1.016-.247-.291-.806-.658-1.675-1.102-.933-.48-1.566-.955-1.903-1.424-.336-.469-.505-1.003-.505-1.604 0-.785.269-1.437.805-1.956.535-.52 1.213-.779 2.03-.779.95 0 1.908.466 2.871 1.397z"
         id="path71" />
      <path
         style="fill:#333333"
         d="m390.09 102.87h6.998v1.367h-5.603v4.378h5.603v1.367h-5.603v6.855h-1.396v-13.967z"
         id="path73" />
      <path
         style="fill:#333333"
         d="m399.76 102.26c.302 0 .562.108.774.323.215.215.322.475.322.778 0 .298-.107.554-.322.769-.213.216-.473.323-.774.323-.296 0-.552-.107-.767-.323-.213-.215-.32-.471-.32-.769 0-.304.107-.563.32-.778.215-.215.471-.323.767-.323zm-.66 4.254h1.329v10.331h-1.329v-10.331z"
         id="path75" />
      <path
         style="fill:#333333"
         d="m403.19 106.51h1.329v1.852c.532-.709 1.12-1.239 1.767-1.591.645-.352 1.348-.527 2.107-.527.771 0 1.457.197 2.056.59s1.04.92 1.325 1.586c.284.664.427 1.699.427 3.104v5.318h-1.329v-4.928c0-1.191-.05-1.985-.148-2.384-.154-.684-.449-1.198-.887-1.543-.436-.345-1.006-.518-1.709-.518-.804 0-1.523.266-2.16.798-.637.531-1.056 1.189-1.258 1.975-.127.513-.19 1.449-.19 2.811v3.789h-1.329v-10.332z"
         id="path77" />
      <path
         style="fill:#333333"
         d="m425.35 106.51v10.331h-1.311v-1.775c-.558.677-1.183 1.186-1.875 1.527-.693.342-1.451.514-2.274.514-1.462 0-2.711-.53-3.746-1.591-1.034-1.06-1.552-2.351-1.552-3.869 0-1.487.521-2.76 1.566-3.817 1.044-1.057 2.301-1.586 3.77-1.586.848 0 1.615.182 2.303.542.686.36 1.289.901 1.809 1.624v-1.899h1.31zm-5.312 1.016c-.74 0-1.424.182-2.049.545-.627.363-1.124.874-1.494 1.531-.369.658-.555 1.354-.555 2.087 0 .728.187 1.423.56 2.087s.874 1.18 1.503 1.551c.629.369 1.305.555 2.025.555.727 0 1.416-.184 2.067-.551s1.151-.863 1.503-1.488c.352-.627.526-1.332.526-2.115 0-1.195-.394-2.194-1.181-2.998-.786-.803-1.755-1.204-2.905-1.204z"
         id="path79" />
      <path
         style="fill:#333333"
         d="m428.34 106.51h1.33v1.852c.531-.709 1.12-1.239 1.766-1.591s1.348-.527 2.107-.527c.772 0 1.458.197 2.057.59.598.393 1.039.92 1.324 1.586.285.664.428 1.699.428 3.104v5.318h-1.33v-4.928c0-1.191-.049-1.985-.148-2.384-.153-.684-.449-1.198-.886-1.543s-1.007-.518-1.709-.518c-.804 0-1.524.266-2.161.798-.636.531-1.055 1.189-1.258 1.975-.127.513-.189 1.449-.189 2.811v3.789h-1.33v-10.332z"
         id="path81" />
      <path
         style="fill:#333333"
         d="m450.22 108.66-1.055.655c-.91-1.209-2.152-1.813-3.727-1.813-1.258 0-2.303.404-3.135 1.215-.832.809-1.247 1.792-1.247 2.949 0 .752.191 1.461.573 2.124.383.664.908 1.179 1.574 1.546.668.367 1.416.551 2.244.551 1.518 0 2.756-.605 3.717-1.814l1.055.693c-.494.744-1.157 1.32-1.99 1.73-.832.41-1.779.615-2.844.615-1.633 0-2.987-.52-4.063-1.558s-1.615-2.301-1.615-3.788c0-1 .252-1.93.756-2.787.502-.857 1.194-1.527 2.074-2.008.879-.481 1.863-.723 2.953-.723.684 0 1.344.105 1.979.314s1.176.48 1.618.816c.446.338.823.765 1.133 1.283z"
         id="path83" />
      <path
         style="fill:#333333"
         d="m461.48 113.41 1.12.588c-.368.723-.792 1.305-1.274 1.748-.48.442-1.022.779-1.625 1.011-.602.231-1.283.347-2.043.347-1.686 0-3.003-.553-3.953-1.657-.951-1.104-1.426-2.353-1.426-3.745 0-1.311.402-2.479 1.207-3.504 1.02-1.305 2.385-1.957 4.096-1.957 1.762 0 3.168.668 4.22 2.004.747.943 1.128 2.121 1.141 3.532h-9.296c.025 1.2.408 2.184 1.15 2.951.741.767 1.657 1.151 2.748 1.151.525 0 1.037-.092 1.535-.275.497-.182.92-.426 1.269-.728.348-.303.725-.792 1.131-1.466zm0-2.783c-.178-.708-.436-1.275-.775-1.699s-.787-.766-1.346-1.025c-.557-.26-1.144-.389-1.758-.389-1.015 0-1.886.326-2.615.978-.531.475-.935 1.187-1.207 2.136h7.701z"
         id="path85" />
      <path
         style="fill:#333333"
         d="m470.61 107.64-.854.883c-.711-.689-1.406-1.035-2.085-1.035-.432 0-.802.143-1.109.428s-.462.617-.462.997c0 .335.127.655.381.959.254.31.787.674 1.599 1.092.989.513 1.662 1.007 2.017 1.481.35.48.523 1.021.523 1.623 0 .849-.298 1.566-.894 2.156-.597.588-1.341.883-2.235.883-.596 0-1.164-.13-1.707-.39-.541-.259-.99-.617-1.345-1.073l.835-.949c.68.766 1.399 1.148 2.16 1.148.533 0 .987-.17 1.361-.512.375-.342.563-.744.563-1.207 0-.379-.125-.718-.371-1.016-.248-.291-.807-.658-1.676-1.102-.932-.48-1.566-.955-1.902-1.424s-.505-1.003-.505-1.604c0-.785.269-1.437.804-1.956.536-.52 1.213-.779 2.031-.779.951 0 1.908.466 2.871 1.397z"
         id="path87" />
      <path
         style="fill:#333333"
         d="m478.37 106.51h1.33v1.899c.524-.723 1.128-1.264 1.811-1.624.684-.36 1.445-.542 2.287-.542 1.467 0 2.722.529 3.766 1.586 1.043 1.058 1.564 2.33 1.564 3.817 0 1.519-.517 2.81-1.551 3.869-1.033 1.061-2.281 1.591-3.742 1.591-.822 0-1.578-.172-2.267-.514s-1.313-.851-1.868-1.527v5.554h-1.33v-14.109zm5.317 1.016c-1.149 0-2.117.4-2.903 1.203-.787.804-1.18 1.803-1.18 2.998 0 .783.176 1.488.525 2.115.352.625.854 1.121 1.507 1.488s1.343.551 2.069.551c.715 0 1.385-.186 2.014-.555.629-.371 1.129-.887 1.502-1.551.372-.664.559-1.359.559-2.087 0-.733-.186-1.429-.555-2.087-.369-.657-.867-1.168-1.492-1.531s-1.307-.544-2.046-.544z"
         id="path89" />
      <path
         style="fill:#333333"
         d="m491.44 106.51h1.329v4.823c0 1.178.063 1.988.189 2.432.191.633.554 1.133 1.09 1.5.535.367 1.174.551 1.916.551.741 0 1.371-.18 1.887-.537.518-.357.874-.828 1.07-1.41.133-.398.199-1.244.199-2.535v-4.823h1.358v5.07c0 1.425-.166 2.497-.499 3.219-.332.722-.832 1.286-1.5 1.694s-1.505.613-2.512.613c-1.006 0-1.846-.205-2.521-.613-.674-.408-1.177-.978-1.51-1.709-.332-.73-.498-1.83-.498-3.299v-4.976z"
         id="path91" />
      <path
         style="fill:#333333"
         d="m503.52 116.84v-14.318h1.33v5.763c.556-.684 1.179-1.194 1.868-1.533s1.444-.509 2.267-.509c1.461 0 2.709.531 3.742 1.592 1.034 1.06 1.551 2.346 1.551 3.859 0 1.494-.521 2.77-1.564 3.826-1.044 1.057-2.299 1.586-3.766 1.586-.842 0-1.604-.181-2.286-.541-.683-.361-1.287-.902-1.812-1.624v1.899h-1.33zm5.317-1.017c.739 0 1.421-.182 2.046-.546.625-.363 1.123-.875 1.492-1.533s.555-1.354.555-2.089-.187-1.435-.559-2.099c-.373-.664-.873-1.182-1.502-1.553-.629-.37-1.299-.555-2.014-.555-.726 0-1.416.185-2.069.555-.653.371-1.155.869-1.507 1.496-.35.627-.525 1.332-.525 2.117 0 1.196.393 2.196 1.18 3 .786.806 1.754 1.207 2.903 1.207z"
         id="path93" />
      <path
         style="fill:#333333"
         d="m516.5 102.52h1.329v14.318h-1.329v-14.318z"
         id="path95" />
      <path
         style="fill:#333333"
         d="m521.05 102.26c.303 0 .561.108.775.323s.321.475.321.778c0 .298-.107.554-.321.769-.215.216-.473.323-.775.323-.297 0-.552-.107-.766-.323-.215-.215-.322-.471-.322-.769 0-.304.107-.563.322-.778s.469-.323.766-.323zm-.66 4.254h1.33v10.331h-1.33v-10.331z"
         id="path97" />
      <path
         style="fill:#333333"
         d="m534.77 106.51v14.109h-1.31v-5.554c-.558.677-1.183 1.186-1.876 1.527-.692.342-1.451.514-2.273.514-1.463 0-2.711-.53-3.746-1.591-1.035-1.06-1.553-2.351-1.553-3.869 0-1.487.523-2.76 1.567-3.817s2.301-1.586 3.77-1.586c.849 0 1.616.182 2.302.542.688.36 1.291.901 1.81 1.624v-1.899h1.309zm-5.312 1.016c-.738 0-1.422.182-2.048.545s-1.124.874-1.493 1.531c-.371.658-.555 1.354-.555 2.087 0 .728.186 1.423.559 2.087s.875 1.18 1.504 1.551c.629.369 1.304.555 2.024.555.728 0 1.416-.184 2.067-.551s1.152-.863 1.504-1.488c.35-.627.525-1.332.525-2.115 0-1.195-.393-2.194-1.18-2.998-.787-.803-1.756-1.204-2.907-1.204z"
         id="path99" />
      <path
         style="fill:#333333"
         d="m537.58 106.51h1.329v4.823c0 1.178.063 1.988.189 2.432.191.633.554 1.133 1.09 1.5.535.367 1.174.551 1.916.551.741 0 1.371-.18 1.887-.537.518-.357.874-.828 1.07-1.41.133-.398.199-1.244.199-2.535v-4.823h1.358v5.07c0 1.425-.166 2.497-.499 3.219-.332.722-.832 1.286-1.5 1.694s-1.505.613-2.512.613c-1.006 0-1.846-.205-2.521-.613-.674-.408-1.177-.978-1.51-1.709-.332-.73-.498-1.83-.498-3.299v-4.976z"
         id="path101" />
      <path
         style="fill:#333333"
         d="m558.27 113.41 1.12.588c-.367.723-.791 1.305-1.273 1.748-.481.442-1.023.779-1.625 1.011s-1.283.347-2.043.347c-1.686 0-3.004-.553-3.953-1.657-.951-1.104-1.426-2.353-1.426-3.745 0-1.311.402-2.479 1.207-3.504 1.02-1.305 2.385-1.957 4.096-1.957 1.762 0 3.168.668 4.219 2.004.748.943 1.129 2.121 1.141 3.532h-9.295c.025 1.2.408 2.184 1.15 2.951.74.767 1.656 1.151 2.747 1.151.526 0 1.038-.092 1.535-.275.497-.182.921-.426 1.269-.728.349-.303.726-.792 1.131-1.466zm0-2.783c-.177-.708-.436-1.275-.774-1.699-.34-.424-.788-.766-1.346-1.025s-1.145-.389-1.759-.389c-1.015 0-1.886.326-2.614.978-.532.475-.936 1.187-1.207 2.136h7.7z"
         id="path103" />
      <path
         style="fill:#333333"
         d="m567.4 107.64-.854.883c-.711-.689-1.405-1.035-2.085-1.035-.432 0-.801.143-1.109.428-.307.285-.461.617-.461.997 0 .335.127.655.381.959.254.31.786.674 1.598 1.092.99.513 1.662 1.007 2.018 1.481.35.48.523 1.021.523 1.623 0 .849-.299 1.566-.895 2.156-.596.588-1.34.883-2.234.883-.596 0-1.165-.13-1.707-.39-.542-.259-.99-.617-1.346-1.073l.836-.949c.679.766 1.398 1.148 2.16 1.148.533 0 .986-.17 1.361-.512.374-.342.562-.744.562-1.207 0-.379-.124-.718-.371-1.016-.247-.291-.806-.658-1.675-1.102-.933-.48-1.566-.955-1.903-1.424-.336-.469-.505-1.003-.505-1.604 0-.785.269-1.437.805-1.956.535-.52 1.213-.779 2.03-.779.95 0 1.908.466 2.871 1.397z"
         id="path105" />
    </g>
    <g
       transform="matrix(.65361 0 0 .65361 225.13 354.58)"
       id="g107">
      <path
         style="fill:#0083ae"
         d="m6.471 10.417h-6.471v-10.417h6.471v10.417zm-6.471 56.403v-50.482h6.471v50.482h-6.471z"
         id="path109" />
      <path
         style="fill:#0083ae"
         d="m56.586 24.231c2.049-2.906 4.596-5.117 7.641-6.632 3.044-1.514 6.448-2.271 10.211-2.271 6.853 0 11.84 2.058 14.961 6.172 3.121 4.116 4.681 10.732 4.681 19.849v25.471h-6.195v-26.801c0-6.669-1.102-11.419-3.304-14.25-2.203-2.83-5.798-4.245-10.785-4.245-2.876 0-5.408.59-7.595 1.767-2.188 1.178-3.924 2.868-5.208 5.071-.765 1.376-1.316 2.945-1.652 4.704-.337 1.759-.505 4.826-.505 9.201v24.553h-6.104v-28.27c0-5.813-1.178-10.104-3.534-12.873s-5.966-4.153-10.831-4.153c-2.937 0-5.515.59-7.733 1.767-2.219 1.178-3.97 2.868-5.254 5.071-.796 1.376-1.354 2.945-1.675 4.704s-.482 4.826-.482 9.201v24.553h-6.379v-50.482h6.379v5.736c1.928-2.233 4.199-3.916 6.815-5.048s5.576-1.698 8.88-1.698c3.824 0 7.312.803 10.463 2.409 3.15 1.607 5.553 3.772 7.205 6.494z"
         id="path111" />
      <path
         style="fill:#0083ae"
         d="m104.27 16.338h6.379v8.261c1.836-2.846 4.459-5.117 7.871-6.815 3.411-1.698 7.044-2.547 10.899-2.547 7.618 0 13.929 2.532 18.931 7.595 5.002 5.064 7.503 11.389 7.503 18.977 0 7.405-2.471 13.646-7.412 18.725s-11.114 7.618-18.518 7.618c-4.1 0-7.794-.795-11.083-2.386-3.289-1.59-6.02-3.901-8.192-6.93v3.488 7.526 13.309h-6.379v-66.821zm6.378 24.919c0 5.752 1.896 10.67 5.691 14.755 3.793 4.084 8.261 6.126 13.4 6.126 5.293 0 9.836-1.935 13.63-5.805 3.793-3.87 5.69-8.62 5.69-14.25 0-5.904-1.904-10.854-5.713-14.846s-8.421-5.989-13.837-5.989c-4.987 0-9.378 2.004-13.171 6.012-3.793 4.009-5.69 8.674-5.69 13.997z"
         id="path113" />
      <path
         style="fill:#0083ae"
         d="m160.9 41.625c0-7.404 2.54-13.737 7.618-19 5.079-5.262 11.09-7.894 18.036-7.894 7.312 0 13.545 2.586 18.701 7.756 5.155 5.171 7.733 11.335 7.733 18.495 0 7.526-2.524 13.951-7.572 19.275-5.048 5.323-11.167 7.985-18.357 7.985-7.313 0-13.5-2.608-18.564-7.824s-7.595-11.48-7.595-18.793zm6.792-.092c0 5.813 1.851 10.686 5.553 14.617 3.702 3.932 8.307 5.897 13.814 5.897 5.415 0 9.958-1.965 13.63-5.897 3.671-3.931 5.507-8.834 5.507-14.709 0-5.966-1.859-10.869-5.576-14.708s-8.437-5.759-14.158-5.759c-5.14 0-9.554 1.973-13.24 5.92-3.687 3.946-5.53 8.826-5.53 14.639z"
         id="path115" />
      <path
         style="fill:#0083ae"
         d="m225.01 66.82v-43.966h-9.592v-6.517h9.592v-16.337h6.471v16.338h9.592v6.517h-9.592v43.965h-6.471z"
         id="path117" />
      <path
         style="fill:#0083ae"
         d="m243.05 50.941h6.654v.184c0 3.151.902 5.76 2.708 7.825 1.805 2.065 4.039 3.098 6.7 3.098 2.54 0 4.65-.795 6.333-2.386 1.682-1.59 2.524-3.595 2.524-6.012s-.666-4.36-1.996-5.828c-1.331-1.469-3.74-2.845-7.228-4.13-5.599-1.988-9.255-4.023-10.969-6.104-1.714-2.08-2.57-4.864-2.57-8.352 0-3.947 1.43-7.297 4.291-10.051 2.86-2.753 6.325-4.13 10.395-4.13 4.314 0 7.74 1.224 10.28 3.671 2.539 2.448 3.901 5.859 4.084 10.234h-6.93c-.153-2.387-.911-4.237-2.271-5.553-1.362-1.315-3.22-1.974-5.576-1.974-2.111 0-3.871.711-5.277 2.134-1.408 1.423-2.111 3.189-2.111 5.301 0 1.499.291 2.761.872 3.786s1.544 1.95 2.891 2.776c1.224.765 3.006 1.5 5.347 2.203 2.34.705 3.908 1.224 4.704 1.561 3.151 1.347 5.468 3.137 6.953 5.37 1.483 2.233 2.226 5.079 2.226 8.536 0 4.345-1.514 7.939-4.543 10.785-3.029 2.845-6.869 4.268-11.52 4.268-4.743 0-8.552-1.552-11.427-4.658-2.877-3.107-4.392-7.291-4.544-12.554z"
         id="path119" />
      <path
         style="fill:#8f8f8f"
         d="m290.82 66.82h-6.563v-12.208h6.563v12.208z"
         id="path121" />
      <path
         style="fill:#8f8f8f"
         d="m314.64 70.95c.979 2.937 2.754 5.224 5.324 6.86s5.69 2.456 9.361 2.456c5.752 0 10.364-1.913 13.837-5.737 3.472-3.824 5.209-8.933 5.209-15.328v-1.331c-2.448 3.335-5.231 5.852-8.353 7.549-3.121 1.698-6.563 2.547-10.326 2.547-7.588 0-13.891-2.531-18.908-7.595-5.018-5.063-7.525-11.374-7.525-18.931 0-7.435 2.479-13.676 7.434-18.724 4.957-5.048 11.091-7.572 18.404-7.572 4.252 0 7.932.765 11.037 2.295 3.104 1.53 5.852 3.917 8.237 7.159v-8.261h6.333v42.129c0 8.812-2.211 15.695-6.631 20.652-4.422 4.956-10.518 7.435-18.289 7.435-5.721 0-10.632-1.416-14.731-4.245-4.101-2.83-6.746-6.616-7.939-11.358h7.526zm-4.497-29.784c0 5.905 1.874 10.846 5.622 14.823 3.747 3.978 8.268 5.966 13.561 5.966 4.986 0 9.393-1.996 13.217-5.989s5.737-8.681 5.737-14.066c0-5.751-1.882-10.662-5.646-14.731-3.763-4.069-8.199-6.104-13.309-6.104-5.262 0-9.775 1.935-13.538 5.805-3.762 3.871-5.644 8.636-5.644 14.296z"
         id="path123" />
      <path
         style="fill:#8f8f8f"
         d="m362 41.625c0-7.404 2.539-13.737 7.618-19 5.079-5.262 11.091-7.894 18.036-7.894 7.313 0 13.545 2.586 18.701 7.756 5.155 5.171 7.732 11.335 7.732 18.495 0 7.526-2.523 13.951-7.572 19.275-5.048 5.323-11.167 7.985-18.356 7.985-7.313 0-13.501-2.608-18.563-7.824-5.064-5.216-7.596-11.48-7.596-18.793zm6.793-.092c0 5.813 1.85 10.686 5.553 14.617 3.701 3.932 8.307 5.897 13.813 5.897 5.415 0 9.958-1.965 13.63-5.897 3.672-3.931 5.508-8.834 5.508-14.709 0-5.966-1.859-10.869-5.576-14.708-3.718-3.839-8.438-5.759-14.158-5.759-5.141 0-9.554 1.973-13.24 5.92-3.688 3.946-5.53 8.826-5.53 14.639z"
         id="path125" />
      <path
         style="fill:#8f8f8f"
         d="m421.53 16.338h6.379v26.801c0 6.884 1.117 11.756 3.35 14.617s5.904 4.291 11.015 4.291c2.907 0 5.462-.588 7.665-1.767 2.202-1.178 3.977-2.883 5.322-5.117.766-1.315 1.316-2.868 1.652-4.658.337-1.79.506-4.902.506-9.339v-24.828h6.471v50.482h-6.471v-5.461c-1.959 2.387-4.146 4.115-6.563 5.186s-5.339 1.606-8.765 1.606c-7.283 0-12.529-1.965-15.742-5.897-3.213-3.931-4.818-10.456-4.818-19.573v-26.343z"
         id="path127" />
      <path
         style="fill:#8f8f8f"
         d="m493.9 66.82h-5.92l-19.734-50.482h6.838l16.154 40.707 16.292-40.707h7.021l-20.651 50.482z"
         id="path129" />
      <path
         style="fill:#bcbcbc"
         d="m520.01 66.82h-6.563v-12.208h6.563v12.208z"
         id="path131" />
      <path
         style="fill:#bcbcbc"
         d="m544.2 66.82h-6.287v-44.838h-6.746v-5.645h6.471v-1.377c0-5.354 1.354-9.316 4.062-11.886s6.861-3.855 12.46-3.855h.597v5.829c-3.886.062-6.632.834-8.238 2.317-1.605 1.484-2.409 4.016-2.409 7.595v1.377h10.647v5.645h-10.556v44.838z"
         id="path133" />
      <path
         style="fill:#bcbcbc"
         d="m567.51 66.82h-6.563v-50.482h6.104v5.828c1.59-2.233 3.327-3.87 5.209-4.91 1.881-1.04 4.076-1.591 6.586-1.652l.045 7.021c-4.068.367-6.982 1.583-8.742 3.648s-2.639 5.423-2.639 10.074v30.473z"
         id="path135" />
    </g>
    <g
       transform="matrix(1.25,0,0,-1.25,51.797681,493.11985)"
       id="g137">
      <g
         transform="scale(0.1,0.1)"
         id="g139">
        <path
           d="m 46.411231,586.37824 c -1.687,0 -3.211,-0.254 -5.07,-0.676 0,-4.985 -0.086,-14.028 -0.086,-21.035 0.93,-0.172 2.625,-0.254 3.723,-0.254 6.921,0 11.57,4.308 11.57,10.894 0,6.422 -4.305,11.071 -10.137,11.071 z m 21.715,-52.891 c -3.125,0 -4.902,0.422 -6.676,1.605 -2.789,1.86 -5.746,6.93 -7.433,9.801 -2.871,4.985 -6.086,10.309 -9.129,14.785 -0.508,-0.082 -0.926,-0.082 -1.266,-0.082 -0.844,0 -1.519,0.082 -2.367,0.082 l 0,-4.476 c 0,-2.282 0.086,-4.563 0.086,-6.844 0.086,-4.563 0.168,-6.508 0.844,-8.281 0.847,-2.196 2.367,-3.293 5.156,-3.547 l 0,-2.367 -1.945,0.082 c -2.196,0.09 -5.239,0 -9.207,0 -3.887,0 -6.93,0.09 -9.125,0 l -2.028,-0.082 0,2.367 c 2.11,0.168 3.125,0.59 4.141,1.687 0.926,1.102 1.515,2.618 1.687,4.563 0.254,2.535 0.336,4.058 0.336,12.422 l 0,14.195 c 0,10.309 -0.336,12.84 -0.926,15.211 -0.593,2.277 -2.367,3.207 -5.238,3.543 l 0,2.367 c 1.688,-0.172 3.379,-0.086 5.067,-0.086 4.394,0 5.75,0 10.988,0.254 4.558,0.172 7.176,0.254 9.207,0.254 5.742,0 9.211,-0.848 12.082,-2.871 3.211,-2.281 5.32,-6.676 5.32,-11.07 0,-6.93 -4.558,-12.586 -12.332,-15.465 3.211,-4.051 5.742,-8.106 8.699,-12.754 2.707,-4.305 5.411,-8.027 7.52,-10.141 1.184,-1.265 1.945,-1.687 3.551,-2.109 l 0,-2.367 c -2.199,-0.504 -4.395,-0.676 -7.012,-0.676"
           style="fill:#231f20"
           id="path147"
           inkscape:connector-curvature="0" />
        <path
           d="m 111.48123,535.20824 c -0.633,-1.047 -1.329,-1.258 -5.168,-1.258 -2.371,0 -4.676,0.14 -7.050999,0.211 -3.352,0.074 -6.699,0.211 -10.051,0.211 -3.348,0 -6.695,-0.071 -10.047,-0.211 l 0,1.953 c 3.141,0.281 4.535,2.097 4.817,5.164 0.207,2.098 0.207,4.332 0.207,7.961 l 0,19.75 c 0,3.703 -0.207,5.375 -0.766,6.84 -0.629,1.816 -1.887,2.652 -4.258,2.929 l 0,1.957 32.659999,0 c 0,-2.023 -0.066,-4.121 -0.066,-6.14 0,-1.676 -0.07,-3.282 0.066,-4.957 l -2.507,0 c -0.489,5.371 -2.793,6.836 -11.097999,6.836 -1.539,0 -3.563,-0.063 -5.234,-0.137 -0.145,-2.719 -0.211,-3.625 -0.211,-7.676 l 0,-8.094 c 1.043,-0.074 1.882,-0.074 3.136,-0.074 7.261999,0 9.491999,1.051 9.913999,4.82 l 2.516,0 c -0.145,-1.121 -0.145,-3.421 -0.145,-6.91 0,-3.562 0.071,-5.66 0.145,-6.773 l -2.516,0 c -0.211,3.98 -2.093,4.957 -9.280999,4.957 -1.258,0 -2.516,-0.074 -3.769,-0.074 0,-4.395 0.066,-8.793 0.066,-13.188 0,-2.933 0.488,-3.91 2.164,-4.324 1.051,-0.285 2.656,-0.355 4.82,-0.355 7.538999,0 10.191999,1.675 11.796999,7.398 l 2.719,-0.555 c -0.977,-4.886 -2.094,-8.937 -2.859,-10.261 z m -15.570999,50.046 -3.277,1.954 6.91,10.191 8.026999,-1.469 -11.659999,-10.676"
           style="fill:#231f20"
           id="path149"
           inkscape:connector-curvature="0" />
        <path
           d="m 140.58123,554.88824 c -0.699,0 -1.047,0 -1.953,0.07 l -1.539,3.559 c 6.562,0.422 10.191,3.629 10.191,8.938 0,5.578 -3.84,9.558 -9.14,9.558 -0.84,0 -1.539,-0.066 -2.657,-0.277 0,-4.332 -0.136,-8.656 -0.136,-12.985 l 0,-12.214 c 0,-9.141 0.066,-10.68 0.765,-12.493 0.629,-1.816 1.883,-2.722 4.258,-2.933 l 0,-1.953 -1.676,0.074 c -1.816,0.066 -4.324,0.066 -7.679,0.066 -3.278,0 -5.86,0 -7.61,-0.066 l -1.672,-0.074 0,1.953 c 3.145,0.281 4.536,2.097 4.821,5.164 0.207,2.098 0.207,3.355 0.207,10.262 l 0,17.449 c 0,3.703 -0.207,5.375 -0.77,6.84 -0.625,1.816 -1.883,2.652 -4.258,2.929 l 0,1.957 c 0.84,-0.066 0.207,-0.066 3.211,-0.066 1.188,0 2.864,0 5.094,0.066 3.559,0.141 7.117,0.348 10.68,0.348 9.91,0 15.844,-4.883 15.844,-12.98 0,-7.61 -6.766,-13.192 -15.981,-13.192"
           style="fill:#231f20"
           id="path151"
           inkscape:connector-curvature="0" />
        <path
           d="m 204.02123,577.22824 c -0.77,-1.047 -1.121,-2.441 -1.258,-5.234 -0.141,-3.004 -0.207,-5.309 -0.207,-9.633 0,-1.606 0.066,-6.422 0.066,-11.238 0,-4.887 -0.765,-7.817 -2.793,-10.75 -3.207,-4.672 -8.515,-7.047 -15.492,-7.047 -4.398,0 -7.75,0.836 -10.891,2.929 -4.886,3.141 -6.769,7.262 -6.769,14.661 0,7.539 0.141,10.812 0.141,13.257 0,3.563 0.21,7.262 -0.422,10.75 -0.418,2.512 -1.743,3.559 -4.676,3.836 l 0,1.957 1.605,-0.066 c 1.817,-0.074 4.399,-0.074 7.75,-0.074 3.348,0 5.934,0 7.746,0.074 l 1.606,0.066 0,-1.957 c -2.164,-0.277 -3.211,-0.836 -3.906,-2.019 -0.633,-1.047 -0.91,-2.442 -0.981,-5.516 -0.14,-4.398 -0.207,-8.722 -0.207,-13.125 0,-12 0.278,-14.305 2.442,-16.82 1.671,-1.953 4.535,-3.277 7.89,-3.277 4.672,0 9.207,2.371 10.606,7.046 0.906,3.004 1.043,5.168 1.043,13.051 l 0,6.91 c 0,7.961 -0.203,10.403 -0.969,11.586 -0.774,1.262 -1.817,1.961 -3.637,2.164 l 0,1.957 c 2.793,-0.14 3.774,-0.14 7.262,-0.14 3.558,0 4.539,0 7.332,0.14 l 0,-1.957 c -1.539,-0.203 -2.516,-0.625 -3.281,-1.531"
           style="fill:#231f20"
           id="path153"
           inkscape:connector-curvature="0" />
        <path
           d="m 231.93123,557.61824 c -1.188,0 -2.449,-0.071 -4.258,-0.211 -0.074,-1.887 -0.074,-2.235 -0.074,-5.445 l 0,-4.118 c 0,-3.906 0.14,-6 0.629,-7.394 0.558,-1.75 2.234,-2.586 5.168,-2.586 5.929,0 9.281,3.281 9.281,9.141 0,6.496 -4.192,10.613 -10.746,10.613 z m -0.211,19.469 c -1.258,0 -2.516,-0.133 -3.77,-0.133 -0.066,-4.543 -0.211,-12.356 -0.277,-15.289 0.766,-0.071 1.742,-0.137 3.07,-0.137 6.84,0 10.746,2.859 10.746,7.887 0,4.812 -3.629,7.672 -9.769,7.672 z m 15.215,-39.641 c -3.282,-2.512 -6.977,-3.352 -14.102,-3.352 -3.766,0 -7.605,0.282 -11.379,0.282 -1.531,0 -4.39,0 -6.347,-0.137 l -0.836,-0.074 0,1.953 c 3.281,0.281 4.535,1.957 4.812,5.164 0.211,2.098 0.281,3.355 0.281,10.262 l 0,13.191 c 0,6.492 -0.07,9.281 -0.769,11.098 -0.696,1.816 -1.953,2.652 -4.324,2.929 l 0,1.957 c 3.211,-0.14 5.093,-0.14 9.558,-0.14 4.055,0 10.121,0.211 14.168,0.211 6.422,0 12.285,-3.071 12.285,-10.332 0,-5.371 -3.347,-9.004 -9.976,-10.672 7.394,-1.473 11.304,-5.731 11.304,-12.641 0,-4.187 -1.535,-7.328 -4.675,-9.699"
           style="fill:#231f20"
           id="path155"
           inkscape:connector-curvature="0" />
        <path
           d="m 291.03123,535.13824 c -0.625,-0.976 -1.465,-1.187 -4.957,-1.187 -1.742,0 -3.558,0.074 -5.301,0.14 -4.328,0.145 -8.238,0.282 -12.984,0.282 -3.558,0 -5.933,-0.071 -8.164,-0.211 l 0,1.953 c 1.742,0.14 2.648,0.492 3.418,1.394 1.254,1.473 1.605,3.282 1.605,8.379 0,3.492 0.071,6.285 0.071,9.906 l 0,7.473 c 0,9.426 -0.071,10.68 -0.77,12.563 -0.629,1.816 -1.953,2.652 -4.324,2.929 l 0,1.957 1.742,-0.066 c 1.887,-0.074 4.469,-0.074 7.957,-0.074 3.418,0 6.071,0 7.887,0.074 l 1.742,0.066 0,-1.957 c -3.558,0 -5.09,-1.882 -5.512,-5.234 -0.14,-1.18 -0.21,-2.301 -0.21,-10.258 l 0,-11.656 c 0,-9.699 0.07,-10.887 0.98,-11.863 0.766,-0.766 2.234,-1.121 5.23,-1.121 3.844,0 5.934,0.421 7.684,1.398 1.953,1.047 3.418,3.141 4.113,6.074 l 2.653,-0.699 c -0.766,-4.047 -2.094,-9.074 -2.86,-10.262"
           style="fill:#231f20"
           id="path157"
           inkscape:connector-curvature="0" />
        <path
           d="m 315.31123,534.23824 c -1.746,0.066 -4.328,0.066 -7.61,0.066 -3.347,0 -5.859,0 -7.676,-0.066 l -1.671,-0.074 0,1.953 c 3.281,0.281 4.535,1.957 4.812,5.164 0.211,2.098 0.277,3.355 0.277,10.262 l 0,11.726 c 0,1.817 -0.066,3.699 -0.066,5.723 0,3.703 -0.144,5.375 -0.699,6.84 -0.629,1.816 -1.953,2.652 -4.324,2.929 l 0,1.957 1.671,-0.066 c 1.817,-0.074 4.329,-0.074 7.676,-0.074 3.282,0 5.864,0 7.61,0.074 l 1.679,0.066 0,-1.957 c -3.004,-0.203 -4.543,-2.093 -4.82,-5.234 -0.211,-2.02 -0.211,-3.973 -0.211,-10.258 l 0,-11.726 c 0,-9.141 0.074,-10.68 0.77,-12.493 0.629,-1.816 1.886,-2.722 4.261,-2.933 l 0,-1.953 -1.679,0.074"
           style="fill:#231f20"
           id="path159"
           inkscape:connector-curvature="0" />
        <path
           d="m 347.61123,576.80824 c -8.515,0 -14.59,-7.117 -14.59,-17.097 0,-12.145 7.192,-21.707 16.333,-21.707 8.589,0 14.66,7.257 14.66,17.378 0,12.004 -7.192,21.426 -16.403,21.426 z m 32.946,-55.211 c -5.446,0 -11.243,1.676 -16.754,4.746 -3.141,1.75 -7.539,4.746 -10.746,7.399 -2.375,-0.348 -3.286,-0.414 -5.516,-0.414 -14.102,0 -23.449,9.211 -23.449,23.101 0,14.867 10.117,25.125 24.914,25.125 14.375,0 23.941,-9.207 23.941,-23.031 0,-9.84 -5.023,-18.562 -12.984,-22.613 2.512,-1.258 5.023,-2.653 7.469,-4.121 7.117,-4.325 12.004,-6.141 16.609,-6.141 2.867,0 5.238,0.629 8.031,2.023 l 0.907,-2.437 c -3.418,-2.375 -7.676,-3.637 -12.422,-3.637"
           style="fill:#231f20"
           id="path161"
           inkscape:connector-curvature="0" />
        <path
           d="m 421.31123,577.22824 c -0.766,-1.047 -1.118,-2.441 -1.258,-5.234 -0.137,-3.004 -0.211,-5.309 -0.211,-9.633 0,-1.606 0.074,-6.422 0.074,-11.238 0,-4.887 -0.77,-7.817 -2.793,-10.75 -3.211,-4.672 -8.516,-7.047 -15.492,-7.047 -4.402,0 -7.75,0.836 -10.891,2.929 -4.886,3.141 -6.773,7.262 -6.773,14.661 0,7.539 0.14,10.812 0.14,13.257 0,3.563 0.211,7.262 -0.418,10.75 -0.418,2.512 -1.742,3.559 -4.675,3.836 l 0,1.957 1.605,-0.066 c 1.817,-0.074 4.395,-0.074 7.746,-0.074 3.352,0 5.934,0 7.75,0.074 l 1.602,0.066 0,-1.957 c -2.16,-0.277 -3.207,-0.836 -3.906,-2.019 -0.629,-1.047 -0.907,-2.442 -0.977,-5.516 -0.141,-4.398 -0.207,-8.722 -0.207,-13.125 0,-12 0.277,-14.305 2.437,-16.82 1.676,-1.953 4.54,-3.277 7.887,-3.277 4.68,0 9.215,2.371 10.61,7.046 0.91,3.004 1.046,5.168 1.046,13.051 l 0,6.91 c 0,7.961 -0.207,10.403 -0.976,11.586 -0.766,1.262 -1.813,1.961 -3.629,2.164 l 0,1.957 c 2.793,-0.14 3.769,-0.14 7.262,-0.14 3.558,0 4.535,0 7.328,0.14 l 0,-1.957 c -1.535,-0.203 -2.516,-0.625 -3.281,-1.531"
           style="fill:#231f20"
           id="path163"
           inkscape:connector-curvature="0" />
        <path
           d="m 463.89123,535.20824 c -0.625,-1.047 -1.328,-1.258 -5.168,-1.258 -2.371,0 -4.672,0.14 -7.043,0.211 -3.352,0.074 -6.707,0.211 -10.055,0.211 -3.351,0 -6.699,-0.071 -10.051,-0.211 l 0,1.953 c 3.141,0.281 4.54,2.097 4.817,5.164 0.211,2.098 0.211,4.332 0.211,7.961 l 0,19.75 c 0,3.703 -0.211,5.375 -0.77,6.84 -0.629,1.816 -1.883,2.652 -4.258,2.929 l 0,1.957 32.668,0 c 0,-2.023 -0.074,-4.121 -0.074,-6.14 0,-1.676 -0.066,-3.282 0.074,-4.957 l -2.515,0 c -0.488,5.371 -2.793,6.836 -11.098,6.836 -1.535,0 -3.558,-0.063 -5.234,-0.137 -0.137,-2.719 -0.211,-3.625 -0.211,-7.676 l 0,-8.094 c 1.051,-0.074 1.887,-0.074 3.144,-0.074 7.254,0 9.489,1.051 9.907,4.82 l 2.515,0 c -0.14,-1.121 -0.14,-3.421 -0.14,-6.91 0,-3.562 0.074,-5.66 0.14,-6.773 l -2.515,0 c -0.204,3.98 -2.09,4.957 -9.282,4.957 -1.254,0 -2.507,-0.074 -3.769,-0.074 0,-4.395 0.074,-8.793 0.074,-13.188 0,-2.933 0.488,-3.91 2.16,-4.324 1.047,-0.285 2.653,-0.355 4.817,-0.355 7.539,0 10.191,1.675 11.796,7.398 l 2.723,-0.555 c -0.98,-4.886 -2.094,-8.937 -2.863,-10.261"
           style="fill:#231f20"
           id="path165"
           inkscape:connector-curvature="0" />
        <path
           d="m 528.46123,576.91824 c -0.082,6.082 -3.633,8.445 -13.18,8.445 -1.945,0 -3.8,-0.082 -5.91,-0.254 -0.172,-5.828 -0.172,-9.883 -0.172,-19.09 2.028,-0.09 3.043,-0.172 4.477,-0.172 7.855,0 10.226,1.352 10.644,5.918 l 3.043,0 c 0,-2.367 -0.172,-4.82 -0.172,-7.183 0,-3.129 0.172,-6.336 0.172,-9.465 l -3.043,0 c -0.589,5.07 -2.535,6.082 -11.406,6.082 -1.523,0 -2.109,0 -3.715,-0.082 l 0,-9.465 c 0,-1.859 0,-3.887 0.082,-6.082 0.172,-4.645 0.508,-8.703 6,-9.039 l 0,-2.367 -2.027,0.082 c -2.109,0.09 -5.242,0.09 -9.211,0.09 -4.055,0 -7.094,0 -9.293,-0.09 l -2.031,-0.082 0,2.367 c 3.804,0.336 5.496,2.535 5.836,6.25 0.25,2.535 0.25,4.058 0.25,12.422 l 0,21.125 c 0,4.476 -0.25,6.504 -0.93,8.281 -0.762,2.195 -2.277,3.207 -5.156,3.543 l 0,2.367 38.867,0 c -0.164,-1.605 -0.164,-4.308 -0.164,-7.855 0,-3.383 0,-3.887 0.164,-5.746 l -3.125,0"
           style="fill:#231f20"
           id="path167"
           inkscape:connector-curvature="0" />
        <path
           d="m 557.25123,577.28824 c -1.394,0 -2.656,-0.21 -4.187,-0.554 0,-4.121 -0.071,-11.586 -0.071,-17.379 0.766,-0.141 2.164,-0.211 3.067,-0.211 5.726,0 9.566,3.559 9.566,9 0,5.309 -3.558,9.144 -8.375,9.144 z m 17.934,-43.691 c -2.582,0 -4.047,0.348 -5.512,1.328 -2.305,1.535 -4.746,5.723 -6.145,8.098 -2.371,4.113 -5.023,8.512 -7.539,12.211 -0.418,-0.071 -0.765,-0.071 -1.043,-0.071 -0.699,0 -1.253,0.071 -1.953,0.071 l 0,-3.699 c 0,-1.883 0.071,-3.766 0.071,-5.653 0.066,-3.769 0.132,-5.375 0.695,-6.84 0.699,-1.816 1.953,-2.722 4.258,-2.933 l 0,-1.953 -1.606,0.074 c -1.816,0.066 -4.328,0 -7.605,0 -3.211,0 -5.727,0.066 -7.539,0 l -1.676,-0.074 0,1.953 c 1.742,0.14 2.582,0.492 3.418,1.394 0.769,0.91 1.258,2.168 1.394,3.77 0.211,2.098 0.286,3.355 0.286,10.262 l 0,11.726 c 0,8.516 -0.286,10.61 -0.77,12.563 -0.492,1.886 -1.957,2.652 -4.328,2.929 l 0,1.957 c 1.395,-0.14 2.793,-0.066 4.187,-0.066 3.629,0 4.747,0 9.075,0.207 3.769,0.141 5.929,0.207 7.605,0.207 4.746,0 7.61,-0.695 9.981,-2.371 2.652,-1.887 4.402,-5.516 4.402,-9.141 0,-5.726 -3.773,-10.402 -10.191,-12.773 2.652,-3.352 4.746,-6.703 7.187,-10.543 2.234,-3.559 4.469,-6.629 6.211,-8.375 0.98,-1.043 1.605,-1.395 2.934,-1.746 l 0,-1.953 c -1.817,-0.422 -3.633,-0.559 -5.797,-0.559"
           style="fill:#231f20"
           id="path169"
           inkscape:connector-curvature="0" />
        <path
           d="m 602.94123,568.42824 c -1.817,-4.746 -4.325,-10.887 -5.375,-14.308 l 10.332,0 -4.957,14.308 z m 22.613,-34.195 c -1.742,0.066 -4.25,0.066 -7.465,0.066 -3.281,0 -5.797,0 -7.539,-0.066 l -1.606,-0.074 0,1.953 c 2.231,0.14 3.559,1.328 3.559,3.281 0,0.695 -0.211,1.676 -0.906,3.77 -0.836,2.582 -1.399,4.332 -2.235,6.703 l -13.402,0 -1.394,-4.051 c -1.047,-3.141 -1.602,-5.445 -1.602,-6.629 0,-2.023 0.906,-2.934 3.137,-3.074 l 0,-1.953 c -2.653,0.074 -3.633,0.14 -6.977,0.14 -3.281,0 -4.258,-0.066 -6.914,-0.14 l 0,1.953 c 1.051,0.14 1.399,0.281 2.168,0.98 1.324,1.188 2.652,3.629 4.746,8.93 l 6.625,16.891 c 1.817,4.543 4.543,11.871 6.426,17.8 l 4.746,0 c 0.625,-2.16 2.098,-5.586 3.07,-8.097 l 9.84,-25.196 c 1.676,-4.257 2.863,-6.769 3.77,-8.375 0.976,-1.675 1.953,-2.515 3.629,-2.933 l 0,-1.953 -1.676,0.074"
           style="fill:#231f20"
           id="path171"
           inkscape:connector-curvature="0" />
        <path
           d="m 675.24123,576.66824 c -0.761,-1.254 -0.91,-2.442 -1.046,-6.071 -0.204,-6.285 -0.282,-16.054 -0.282,-20.726 l 0,-10.68 c 0,-1.605 0.203,-4.051 0.203,-5.027 l -4.746,0 c -4.527,5.929 -13.949,17.449 -13.949,17.449 -1.117,1.398 -9.844,12.144 -14.238,17.519 0,-1.468 -0.07,-0.558 -0.07,-5.097 l 0,-4.535 c 0,-5.235 0.07,-10.403 0.277,-15.633 0.14,-2.934 0.418,-4.399 1.117,-5.727 0.699,-1.394 1.746,-1.953 3.77,-2.023 l 0,-1.953 c -2.442,0.14 -4.957,0.14 -7.399,0.14 -2.515,0 -4.957,0 -7.469,-0.14 l 0,1.953 c 4.61,0.14 4.746,3.976 4.887,7.609 0.067,2.934 0.137,5.371 0.137,9.84 l 0,14.727 c 0,5.796 -0.278,7.195 -1.324,8.726 -0.7,1.117 -1.606,1.539 -3.7,1.742 l 0,1.957 c 2.305,-0.14 3.145,-0.14 6.075,-0.14 2.859,0 3.699,0 6,0.14 0.839,-1.535 2.164,-2.933 6.984,-8.793 6.84,-8.304 12.977,-15.355 18.77,-22.617 l 0,15.223 c 0,6.976 -0.137,8.719 -0.493,10.535 -0.476,2.23 -1.804,3.352 -4.39,3.695 l 0,1.957 c 2.859,-0.14 3.836,-0.14 7.398,-0.14 3.559,0 4.531,0 7.402,0.14 l 0,-1.957 c -1.882,-0.066 -2.937,-0.414 -3.914,-2.093"
           style="fill:#231f20"
           id="path173"
           inkscape:connector-curvature="0" />
        <path
           d="m 723.95123,535.82824 c -4.543,-1.809 -8.515,-2.508 -14.035,-2.508 l -0.625,-2.793 c 0.356,0.066 1.047,0 1.328,0 2.649,0 4.399,-1.883 4.399,-4.192 0,-3.761 -3,-6.418 -7.746,-6.418 -1.399,0 -2.657,0.282 -4.192,0.907 l 0.981,2.726 c 0.894,-0.351 1.746,-0.562 2.508,-0.562 1.953,0 3.281,0.976 3.281,2.722 0,1.395 -0.696,2.235 -1.738,2.235 -0.567,0 -1.055,-0.211 -1.543,-0.559 l -1.536,0.414 1.399,5.656 c -6.145,0.563 -10.613,2.582 -14.375,6.497 -4.324,4.39 -6.641,10.398 -6.641,17.445 0,15.078 9.707,24.148 25.696,24.148 4.812,0 9.492,-0.695 13.535,-2.019 -0.137,-1.61 -0.137,-3.215 -0.137,-4.746 0,-1.188 0.066,-3.703 0.137,-5.309 l -2.727,0 c -1.113,4.957 -5.09,7.606 -11.433,7.606 -9.844,0 -15.852,-6.555 -15.852,-17.446 0,-12.562 7.051,-21.707 16.758,-21.707 5.847,0 9.836,2.93 11.433,8.516 l 2.661,-0.559 c -0.625,-2.371 -1.25,-6.351 -1.536,-10.054"
           style="fill:#231f20"
           id="path175"
           inkscape:connector-curvature="0" />
        <path
           d="m 749.76123,568.42824 c -1.82,-4.746 -4.328,-10.887 -5.371,-14.308 l 10.332,0 -4.961,14.308 z m 22.613,-34.195 c -1.746,0.066 -4.265,0.066 -7.469,0.066 -3.281,0 -5.793,0 -7.539,-0.066 l -1.601,-0.074 0,1.953 c 2.226,0.14 3.554,1.328 3.554,3.281 0,0.695 -0.207,1.676 -0.91,3.77 -0.84,2.582 -1.394,4.332 -2.222,6.703 l -13.411,0 -1.386,-4.051 c -1.055,-3.141 -1.614,-5.445 -1.614,-6.629 0,-2.023 0.911,-2.934 3.137,-3.074 l 0,-1.953 c -2.644,0.074 -3.625,0.14 -6.972,0.14 -3.282,0 -4.258,-0.066 -6.915,-0.14 l 0,1.953 c 1.043,0.14 1.407,0.281 2.168,0.98 1.329,1.188 2.657,3.629 4.747,8.93 l 6.628,16.891 c 1.821,4.543 4.543,11.871 6.418,17.8 l 4.747,0 c 0.632,-2.16 2.097,-5.586 3.078,-8.097 l 9.839,-25.196 c 1.672,-4.257 2.864,-6.769 3.762,-8.375 0.988,-1.675 1.961,-2.515 3.633,-2.933 l 0,-1.953 -1.672,0.074"
           style="fill:#231f20"
           id="path177"
           inkscape:connector-curvature="0" />
        <path
           d="m 795.19123,534.23824 c -1.75,0.066 -4.329,0.066 -7.622,0.066 -3.335,0 -5.855,0 -7.671,-0.066 l -1.672,-0.074 0,1.953 c 3.269,0.281 4.543,1.957 4.812,5.164 0.207,2.098 0.278,3.355 0.278,10.262 l 0,11.726 c 0,1.817 -0.071,3.699 -0.071,5.723 0,3.703 -0.136,5.375 -0.691,6.84 -0.637,1.816 -1.953,2.652 -4.328,2.929 l 0,1.957 1.672,-0.066 c 1.816,-0.074 4.336,-0.074 7.671,-0.074 3.293,0 5.872,0 7.622,0.074 l 1.668,0.066 0,-1.957 c -3,-0.203 -4.543,-2.093 -4.817,-5.234 -0.215,-2.02 -0.215,-3.973 -0.215,-10.258 l 0,-11.726 c 0,-9.141 0.071,-10.68 0.774,-12.493 0.633,-1.816 1.883,-2.722 4.258,-2.933 l 0,-1.953 -1.668,0.074"
           style="fill:#231f20"
           id="path179"
           inkscape:connector-curvature="0" />
        <path
           d="m 816.88123,533.32824 c -4.055,0 -6.98,0.554 -11.727,2.375 -0.207,2.648 -0.695,6.699 -1.25,10.047 l 2.645,0.421 c 1.68,-5.656 5.371,-8.585 10.742,-8.585 4.961,0 8.321,2.578 8.321,6.488 0,3.14 -2.168,5.308 -5.313,7.262 l -7.324,4.675 c -5.031,3.211 -7.957,6.559 -7.957,12.703 0,7.817 5.926,12.84 15.144,12.84 4.461,0 8.164,-0.836 11.446,-2.508 -0.071,-1.679 -0.071,-2.238 -0.071,-4.402 0,-2.512 0,-3.207 0.071,-5.164 l -2.657,0 c -0.976,5.024 -4.121,7.816 -8.925,7.816 -4.336,0 -7.481,-2.718 -7.481,-6.554 0,-3.356 2.317,-5.586 6.016,-7.961 l 5.926,-3.836 c 5.656,-3.703 8.871,-7.262 8.871,-12.844 0,-7.613 -6.704,-12.773 -16.477,-12.773"
           style="fill:#231f20"
           id="path181"
           inkscape:connector-curvature="0" />
        <path
           d="m 872.97126,535.20824 c -0.62,-1.047 -1.33,-1.258 -5.17,-1.258 -2.37,0 -4.67,0.14 -7.05,0.211 -3.34,0.074 -6.70003,0.211 -10.03703,0.211 -3.348,0 -6.708,-0.071 -10.055,-0.211 l 0,1.953 c 3.14,0.281 4.539,2.097 4.812,5.164 0.215,2.098 0.215,4.332 0.215,7.961 l 0,19.75 c 0,3.703 -0.215,5.375 -0.769,6.84 -0.625,1.816 -1.875,2.652 -4.258,2.929 l 0,1.957 32.66203,0 c 0,-2.023 -0.07,-4.121 -0.07,-6.14 0,-1.676 -0.07,-3.282 0.07,-4.957 l -2.52,0 c -0.48,5.371 -2.78,6.836 -11.09,6.836 -1.53,0 -3.56,-0.063 -5.24,-0.137 -0.13003,-2.719 -0.20003,-3.625 -0.20003,-7.676 l 0,-8.094 c 1.04003,-0.074 1.88003,-0.074 3.14003,-0.074 7.26,0 9.49,1.051 9.92,4.82 l 2.51,0 c -0.14,-1.121 -0.14,-3.421 -0.14,-6.91 0,-3.562 0.06,-5.66 0.14,-6.773 l -2.51,0 c -0.22,3.98 -2.1,4.957 -9.29,4.957 -1.26,0 -2.51,-0.074 -3.77003,-0.074 0,-4.395 0.07,-8.793 0.07,-13.188 0,-2.933 0.49003,-3.91 2.17003,-4.324 1.04,-0.285 2.64,-0.355 4.8,-0.355 7.54,0 10.2,1.675 11.81,7.398 l 2.72,-0.555 c -0.98,-4.886 -2.1,-8.937 -2.87,-10.261"
           style="fill:#231f20"
           id="path183"
           inkscape:connector-curvature="0" />
        <path
           d="m 48.951231,653.58824 c -0.609,-0.81 -1.629,-1.08 -4.078,-1.08 -3.328,0 -6.59,0.19 -9.914,0.27 -2.855,0.06 -5.035,0.13 -6.527,0.13 -2.039,0 -7,-0.07 -8.43,-0.13 l -0.945,-0.08 0.265,1.43 c 2.043,0.21 3.262,0.82 4.215,2.11 1.09,1.36 1.77,3.26 2.719,7.07 0.887,3.73 1.289,5.98 2.723,12.98 l 1.082,5.37 c 1.089,5.44 1.496,8.63 1.496,10.33 0,2.98 -1.086,4.21 -4.012,4.55 l 0.273,1.49 c 0.407,-0.06 0.747,-0.06 0.954,-0.06 2.515,0 4.961,-0.07 7.476,-0.07 3.942,0 6.524,0.07 7.68,0.07 0.199,0 0.609,0 1.086,0.06 l -0.27,-1.49 c -2.109,-0.14 -3.265,-0.68 -4.285,-2.04 -1.695,-2.17 -2.648,-5.1 -5.164,-18.21 l -0.883,-4.55 c -1.09,-5.58 -1.496,-7.48 -1.836,-10 -0.136,-0.81 -0.203,-1.69 -0.203,-2.1 0,-2.65 1.36,-3.47 5.711,-3.47 7.676,0 10.531,1.57 13.047,7.14 l 1.836,-0.68 c -1.633,-4.48 -3.199,-7.95 -4.016,-9.04"
           style="fill:#231f20"
           id="path185"
           inkscape:connector-curvature="0" />
        <path
           d="m 61.721231,651.98824 c -1.36,0 -2.242,0.74 -2.242,1.97 0,0.61 0.207,1.7 0.543,3.2 0.882,3.6 2.109,8.48 2.789,11.07 0.953,3.54 1.363,5.98 1.363,6.93 0,0.89 -0.41,1.3 -1.16,1.3 -0.61,0 -1.227,-0.21 -2.653,-0.62 l -0.472,-0.13 -0.203,1.9 c 3.734,1.43 7.406,2.31 9.242,2.31 1.019,0 1.426,-0.34 1.426,-1.15 0,-0.82 -0.34,-3 -1.563,-7.75 l -1.019,-4.01 c -1.7,-6.6 -2.106,-8.9 -2.106,-9.99 0,-1.02 0.543,-1.63 1.563,-1.63 0.609,0 1.832,0.27 3.734,0.95 l 0.137,-1.91 c -3.602,-1.42 -7.477,-2.44 -9.379,-2.44 z m 7.406,34.73 c -2.102,0 -3.461,1.29 -3.461,3.26 0,2.44 1.762,4.14 4.215,4.14 2.035,0 3.328,-1.22 3.328,-3.19 0,-2.45 -1.699,-4.21 -4.082,-4.21"
           style="fill:#231f20"
           id="path187"
           inkscape:connector-curvature="0" />
        <path
           d="m 99.081231,676.98824 c -1.223,0 -2.715,-0.48 -4.617,-1.5 -1.977,-1.02 -3.402,-2.11 -4.149,-3.12 -0.882,-1.23 -1.628,-3.33 -2.652,-7.82 -1.016,-4.21 -1.492,-6.86 -1.492,-7.82 0,-1.29 1.492,-2.03 4.215,-2.03 2.789,0 5.164,1.29 6.933,3.8 2.714999,3.87 4.753999,10.06 4.753999,14.48 0,2.58 -1.019,4.01 -2.991999,4.01 z m 0.074,-21.82 c -2.652,-2.31 -5.781,-3.26 -10.605,-3.26 -5.297,0 -8.496,0.89 -8.496,2.24 0,0.55 0.066,1.23 0.746,4.08 l 3.535,15.43 c 1.156,4.96 2.043,8.9 3.262,14.47 0.683,3.26 0.953,5.03 0.953,5.92 0,0.81 -0.406,1.29 -1.156,1.29 -0.477,0 -1.969,-0.35 -2.993,-0.68 l -0.066,1.97 0.816,0.27 c 3.672,1.22 6.727,1.9 8.153,1.9 0.883,0 1.429,-0.4 1.429,-1.15 0,-0.75 -0.339,-2.45 -1.492,-7.48 l -2.043,-8.97 c -0.676,-2.92 -0.883,-4.01 -1.086,-4.96 4.282,2.52 8.024,3.67 11.413999,3.67 4.149,0 6.188,-2.11 6.188,-6.39 0,-6.32 -3.606,-14.06 -8.558999,-18.35"
           style="fill:#231f20"
           id="path189"
           inkscape:connector-curvature="0" />
        <path
           d="m 129.53123,677.18824 c -3.265,0 -6.734,-4.48 -8.425,-11.07 l 0.675,0 c 6.321,0 11.075,3.32 11.075,7.68 0,1.9 -1.493,3.39 -3.325,3.39 z m -7.004,-13.59 c -0.476,0 -1.086,0 -1.968,0.07 -0.207,-1.22 -0.27,-2.24 -0.27,-3.27 0,-3.46 1.219,-5.3 3.598,-5.3 2.172,0 4.89,1.16 8.902,3.68 l 0.75,-2.31 c -5.027,-3.13 -8.836,-4.56 -12.301,-4.56 -4.211,0 -6.527,2.51 -6.527,7.07 0,11.21 7.613,20.93 16.383,20.93 4.277,0 6.793,-1.97 6.793,-5.37 0,-6.25 -6.66,-10.94 -15.36,-10.94"
           style="fill:#231f20"
           id="path191"
           inkscape:connector-curvature="0" />
        <path
           d="m 165.14123,671.18824 -2.246,0.21 c 0.136,0.81 0.207,1.77 0.207,2.65 0,1.22 -1.09,2.1 -2.786,2.1 -1.019,0 -2.039,-0.61 -2.921,-1.63 -2.586,-2.92 -3.606,-7.54 -5.098,-15.09 l -1.289,-6.58 c -2.586,-0.14 -3.266,-0.21 -5.914,-0.55 0.679,2.58 1.152,4.62 1.699,6.93 l 1.492,6.33 c 1.024,4.27 1.496,6.92 1.496,8.35 0,1.7 -0.406,2.45 -1.222,2.45 -0.411,0 -1.02,-0.14 -1.7,-0.34 l -1.699,-0.54 -0.203,2.03 c 3.328,1.36 7.133,2.45 8.832,2.45 0.684,0 1.09,-0.27 1.227,-0.95 0.203,-0.82 0.336,-1.77 0.406,-2.92 3.055,2.51 5.773,3.94 7.68,3.94 1.289,0 2.921,-0.68 4.488,-1.84 -1.09,-2.44 -1.906,-4.69 -2.449,-7"
           style="fill:#231f20"
           id="path193"
           inkscape:connector-curvature="0" />
        <path
           d="m 188.18123,675.78824 -5.641,0.14 -2.855,-13.93 c -0.75,-3.6 -0.817,-4.62 -0.817,-5.17 0,-0.94 0.477,-1.49 1.356,-1.49 0.48,0 1.5,0.27 3.133,0.75 l 0.675,0.2 0.207,-1.97 c -3.535,-1.43 -7.207,-2.38 -9.175,-2.38 -1.43,0 -2.309,0.68 -2.309,1.97 0,1.15 0.27,2.85 0.809,4.97 0.617,2.37 1.089,4.34 1.636,6.99 l 2.106,10.06 -3.606,-0.07 0.481,2.18 c 4.617,0.81 6.183,4.48 7.472,8.42 l 3.262,0.69 -1.695,-8.03 5.637,0.07 -0.676,-3.4"
           style="fill:#231f20"
           id="path195"
           inkscape:connector-curvature="0" />
        <path
           d="m 208.49123,677.18824 c -3.261,0 -6.73,-4.48 -8.429,-11.07 l 0.679,0 c 6.324,0 11.078,3.32 11.078,7.68 0,1.9 -1.492,3.39 -3.328,3.39 z m -7,-13.59 c -0.476,0 -1.086,0 -1.969,0.07 -0.207,-1.22 -0.277,-2.24 -0.277,-3.27 0,-3.46 1.227,-5.3 3.606,-5.3 2.171,0 4.89,1.16 8.902,3.68 l 0.746,-2.31 c -5.027,-3.13 -8.832,-4.56 -12.301,-4.56 -4.215,0 -6.523,2.51 -6.523,7.07 0,11.21 7.613,20.93 16.379,20.93 4.281,0 6.797,-1.97 6.797,-5.37 0,-6.25 -6.661,-10.94 -15.36,-10.94 z m 7.539,20.52 -2.172,1.77 8.293,9.38 6.118,-1.49 -12.239,-9.66"
           style="fill:#231f20"
           id="path197"
           inkscape:connector-curvature="0" />
        <path
           d="m 338.72123,688.18824 -1.973,0 c 0.071,0.75 0.137,1.02 0.137,1.5 0,3.74 -2.445,5.03 -9.242,5.03 -2.242,0 -4.414,0 -6.66,-0.2 -1.426,-5.65 -2.379,-10.54 -3.532,-16.59 l 2.516,0 c 4.348,0 6.184,0.07 7.742,0.34 2.516,0.48 4.012,1.97 4.758,4.69 l 1.836,0 c -0.953,-4.01 -2.106,-9.72 -2.582,-13.18 l -1.832,0 c 0.066,0.47 0.133,0.88 0.133,1.15 0,2.93 -1.836,3.88 -7.41,3.88 -3.329,0 -4.547,-0.07 -5.774,-0.14 -0.34,-1.7 0,-0.21 -1.562,-8.02 -0.747,-3.81 -1.024,-6.19 -1.024,-7.41 0,-2.38 1.227,-2.99 5.781,-2.99 8.563,0 11.211,1.36 13.864,7.21 l 1.699,-0.68 c -1.496,-4.49 -3.129,-8.09 -4.074,-9.25 -0.688,-0.75 -1.567,-0.94 -4.422,-0.94 -2.375,0 -4.824,0.06 -7.199,0.13 -3.133,0.06 -6.325,0.14 -9.45,0.14 -3.195,0 -6.32,-0.08 -9.511,-0.08 l 0.265,1.43 c 2.043,0.21 3.266,0.82 4.215,2.11 1.09,1.36 1.77,3.26 2.723,7.07 0.883,3.8 1.156,5.37 2.715,12.98 l 1.086,5.37 c 1.089,5.3 1.496,8.63 1.496,10.33 0,2.98 -1.086,4.21 -4.008,4.55 l 0.269,1.49 30.926,0 c -0.75,-3.06 -1.433,-6.72 -1.906,-9.92 z m -12.914,14.48 -2.172,1.77 8.289,9.38 6.184,-1.5 -12.301,-9.65"
           style="fill:#231f20"
           id="path199"
           inkscape:connector-curvature="0" />
        <path
           d="m 360.33123,649.78824 c -2.316,0.88 -5.101,1.83 -7.957,2.65 -4.683,-1.16 -7.945,-4.63 -7.945,-8.57 0,-3.67 3.125,-6.11 8.015,-6.11 5.915,0 11.348,4.01 11.348,8.35 0,1.63 -1.019,2.72 -3.461,3.68 z m -1.019,27.52 c -3.672,0 -6.661,-3.88 -6.661,-8.5 0,-3.2 1.833,-5.37 4.481,-5.37 3.602,0 6.527,3.74 6.527,8.36 0,3.4 -1.699,5.51 -4.347,5.51 z m 12.976,-1.5 -4.621,0.07 c 0.817,-1.43 1.086,-2.52 1.086,-4.08 0,-6.25 -5.23,-11.07 -12.027,-11.07 -1.293,0 -2.242,0.13 -3.672,0.54 -1.695,-1.02 -2.238,-1.49 -2.238,-2.11 0,-0.74 0.746,-1.08 3.734,-2.03 l 5.437,-1.71 c 5.438,-1.7 8.086,-3.32 8.086,-7.27 0,-7.2 -7.132,-12.84 -16.238,-12.84 -7.476,0 -12.031,3.53 -12.031,9.31 0,5.3 3.398,7.82 8.969,9.24 -3.395,1.22 -4.145,1.77 -4.145,2.92 0,1.5 1.973,3.33 6.051,5.57 -2.106,1.5 -3.125,3.47 -3.125,6.19 0,6.46 5.164,11.35 11.957,11.35 1.769,0 3.058,-0.2 4.555,-0.75 l 8.968,0 -0.746,-3.33"
           style="fill:#231f20"
           id="path201"
           inkscape:connector-curvature="0" />
        <path
           d="m 394.69123,677.08824 c -2.714,0 -5.433,-2.04 -7.742,-5.85 -2.586,-4.15 -4.422,-9.65 -4.422,-13.25 0,-2.1 1.024,-3.26 2.723,-3.26 2.516,0 6.93,2.24 8.629,3.94 0.949,0.95 1.496,2.31 2.176,4.89 1.086,4.15 2.105,8.02 2.715,12.51 -1.497,0.68 -2.918,1.02 -4.079,1.02 z m 3.129,-25.15 c -1.222,0 -1.629,0.75 -2.246,4.08 -5.027,-2.86 -8.695,-4.15 -12.297,-4.15 -4.078,0 -6.457,2.11 -6.457,5.85 0,3.6 1.77,8.7 4.489,12.91 3.668,5.71 8.222,9.31 15.152,9.31 3.055,0 5.844,-0.54 8.766,-1.29 l -0.34,-1.09 c -2.446,-7.81 -4.211,-16.45 -4.211,-19.36 0,-1.84 0.41,-2.86 1.222,-2.86 0.543,0 1.969,0.4 3.668,1.02 l 0.207,-2.11 c -3.468,-1.29 -6.796,-2.31 -7.953,-2.31"
           style="fill:#231f20"
           id="path203"
           inkscape:connector-curvature="0" />
        <path
           d="m 427.93123,691.88824 c -2.242,-9.04 -4.485,-19.09 -6.66,-28.68 -0.68,-3.12 -1.016,-5.16 -1.016,-6.18 0,-1.02 0.473,-1.5 1.492,-1.5 0.68,0 1.903,0.28 3.739,0.82 l 0.132,-1.91 c -3.465,-1.35 -7.679,-2.51 -9.507,-2.51 -1.297,0 -2.043,0.75 -2.043,2.04 0,0.95 0.207,2.17 1.226,6.45 2.106,8.98 4.414,18.56 6.25,27.12 0.817,3.94 1.219,5.92 1.219,6.53 0,0.81 -0.402,1.22 -1.152,1.22 -0.676,0 -1.903,-0.28 -2.989,-0.68 l -0.136,2.04 c 3.468,1.22 7.273,2.17 9.175,2.17 0.95,0 1.426,-0.4 1.426,-1.15 0,-0.68 -0.273,-2.25 -1.156,-5.78"
           style="fill:#231f20"
           id="path205"
           inkscape:connector-curvature="0" />
        <path
           d="m 437.37123,651.98824 c -1.355,0 -2.242,0.74 -2.242,1.97 0,0.61 0.207,1.7 0.543,3.2 0.883,3.6 2.109,8.48 2.789,11.07 0.949,3.54 1.356,5.98 1.356,6.93 0,0.89 -0.407,1.3 -1.153,1.3 -0.613,0 -1.222,-0.21 -2.648,-0.62 l -0.481,-0.13 -0.199,1.9 c 3.735,1.43 7.406,2.31 9.242,2.31 1.016,0 1.426,-0.34 1.426,-1.15 0,-0.82 -0.344,-3 -1.562,-7.75 l -1.02,-4.01 c -1.699,-6.6 -2.109,-8.9 -2.109,-9.99 0,-1.02 0.547,-1.63 1.566,-1.63 0.61,0 1.832,0.27 3.735,0.95 l 0.136,-1.91 c -3.601,-1.42 -7.472,-2.44 -9.379,-2.44 z m 7.407,34.73 c -2.106,0 -3.465,1.29 -3.465,3.26 0,2.44 1.765,4.14 4.215,4.14 2.039,0 3.328,-1.22 3.328,-3.19 0,-2.45 -1.7,-4.21 -4.078,-4.21"
           style="fill:#231f20"
           id="path207"
           inkscape:connector-curvature="0" />
        <path
           d="m 471.53123,675.78824 -5.636,0.14 -2.86,-13.93 c -0.746,-3.6 -0.812,-4.62 -0.812,-5.17 0,-0.94 0.476,-1.49 1.359,-1.49 0.477,0 1.496,0.27 3.125,0.75 l 0.68,0.2 0.207,-1.97 c -3.535,-1.43 -7.203,-2.38 -9.176,-2.38 -1.426,0 -2.308,0.68 -2.308,1.97 0,1.15 0.273,2.85 0.812,4.97 0.609,2.37 1.09,4.34 1.633,6.99 l 2.101,10.06 -3.597,-0.07 0.472,2.18 c 4.625,0.81 6.188,4.48 7.477,8.42 l 3.262,0.69 -1.7,-8.03 5.641,0.07 -0.68,-3.4"
           style="fill:#231f20"
           id="path209"
           inkscape:connector-curvature="0" />
        <path
           d="m 491.85123,677.18824 c -3.262,0 -6.727,-4.48 -8.43,-11.07 l 0.684,0 c 6.32,0 11.074,3.32 11.074,7.68 0,1.9 -1.492,3.39 -3.328,3.39 z m -7,-13.59 c -0.473,0 -1.086,0 -1.973,0.07 -0.199,-1.22 -0.269,-2.24 -0.269,-3.27 0,-3.46 1.222,-5.3 3.601,-5.3 2.176,0 4.891,1.16 8.906,3.68 l 0.746,-2.31 c -5.031,-3.13 -8.836,-4.56 -12.304,-4.56 -4.207,0 -6.52,2.51 -6.52,7.07 0,11.21 7.61,20.93 16.379,20.93 4.277,0 6.797,-1.97 6.797,-5.37 0,-6.25 -6.664,-10.94 -15.363,-10.94 z m 7.547,20.52 -2.18,1.77 8.293,9.38 6.117,-1.49 -12.23,-9.66"
           style="fill:#231f20"
           id="path211"
           inkscape:connector-curvature="0" />
        <path
           d="m 621.15123,688.18824 -1.973,0 c 0.066,0.68 0.137,1.22 0.137,1.56 0,1.36 -0.477,2.45 -1.289,3.27 -1.297,1.22 -3.672,1.69 -8.84,1.69 -1.426,0 -3.328,-0.06 -5.024,-0.13 -1.226,-5.58 -2.308,-10.94 -3.535,-16.72 1.289,0 2.582,-0.07 3.871,-0.07 7.543,0 9.039,0.68 10.469,5.1 l 1.832,0 c -1.086,-4.42 -1.969,-8.77 -2.582,-13.25 l -1.902,0 c 0.07,0.47 0.136,0.88 0.136,1.15 0,1.16 -0.476,2.25 -1.293,2.86 -1.156,0.88 -2.515,1.09 -6.589,1.09 -2.176,0 -2.786,-0.07 -4.551,-0.14 l -0.887,-4.55 c -1.293,-6.53 -1.766,-9.59 -1.766,-11.49 0,-2.78 1.219,-4.08 4.008,-4.42 l -0.273,-1.43 -1.082,0.08 c -0.547,0 -3.535,0.06 -6.121,0.06 -2.719,0 -7.746,0 -8.633,-0.06 l -1.152,-0.08 0.273,1.43 c 2.035,0.21 3.262,0.82 4.215,2.11 1.086,1.36 1.832,3.26 2.715,7.07 0.953,3.87 1.293,5.91 2.718,12.98 l 1.09,5.37 c 1.082,5.37 1.492,8.63 1.492,10.33 0,2.98 -1.086,4.21 -4.007,4.55 l 0.269,1.49 30.176,0 c -0.68,-3.06 -1.363,-6.59 -1.902,-9.85"
           style="fill:#231f20"
           id="path213"
           inkscape:connector-curvature="0" />
        <path
           d="m 644.30123,671.18824 -2.246,0.21 c 0.137,0.81 0.207,1.77 0.207,2.65 0,1.22 -1.086,2.1 -2.785,2.1 -1.02,0 -2.039,-0.61 -2.926,-1.63 -2.582,-2.92 -3.598,-7.54 -5.098,-15.09 l -1.289,-6.58 c -2.582,-0.14 -3.262,-0.21 -5.914,-0.55 0.68,2.58 1.16,4.62 1.699,6.93 l 1.496,6.33 c 1.02,4.27 1.497,6.92 1.497,8.35 0,1.7 -0.407,2.45 -1.223,2.45 -0.41,0 -1.02,-0.14 -1.699,-0.34 l -1.7,-0.54 -0.207,2.03 c 3.332,1.36 7.137,2.45 8.84,2.45 0.68,0 1.082,-0.27 1.223,-0.95 0.203,-0.82 0.34,-1.77 0.406,-2.92 3.059,2.51 5.774,3.94 7.68,3.94 1.293,0 2.922,-0.68 4.484,-1.84 -1.09,-2.44 -1.902,-4.69 -2.445,-7"
           style="fill:#231f20"
           id="path215"
           inkscape:connector-curvature="0" />
        <path
           d="m 667.98123,677.08824 c -2.715,0 -5.442,-2.04 -7.747,-5.85 -2.582,-4.15 -4.418,-9.65 -4.418,-13.25 0,-2.1 1.02,-3.26 2.719,-3.26 2.52,0 6.934,2.24 8.621,3.94 0.957,0.95 1.504,2.31 2.192,4.89 1.082,4.15 2.097,8.02 2.715,12.51 -1.497,0.68 -2.922,1.02 -4.082,1.02 z m 3.125,-25.15 c -1.223,0 -1.625,0.75 -2.25,4.08 -5.016,-2.86 -8.692,-4.15 -12.293,-4.15 -4.079,0 -6.457,2.11 -6.457,5.85 0,3.6 1.769,8.7 4.484,12.91 3.672,5.71 8.223,9.31 15.156,9.31 3.067,0 5.852,-0.54 8.77,-1.29 l -0.34,-1.09 c -2.445,-7.81 -4.211,-16.45 -4.211,-19.36 0,-1.84 0.398,-2.86 1.223,-2.86 0.543,0 1.96,0.4 3.668,1.02 l 0.207,-2.11 c -3.465,-1.29 -6.797,-2.31 -7.957,-2.31"
           style="fill:#231f20"
           id="path217"
           inkscape:connector-curvature="0" />
        <path
           d="m 703.53123,675.78824 -5.632,0.14 -2.864,-13.93 c -0.75,-3.6 -0.808,-4.62 -0.808,-5.17 0,-0.94 0.469,-1.49 1.347,-1.49 0.489,0 1.497,0.27 3.125,0.75 l 0.684,0.2 0.215,-1.97 c -3.535,-1.43 -7.207,-2.38 -9.192,-2.38 -1.414,0 -2.3,0.68 -2.3,1.97 0,1.15 0.269,2.85 0.808,4.97 0.617,2.37 1.094,4.34 1.641,6.99 l 2.101,10.06 -3.593,-0.07 0.468,2.18 c 4.625,0.81 6.18,4.48 7.469,8.42 l 3.274,0.69 -1.703,-8.03 5.636,0.07 -0.676,-3.4"
           style="fill:#231f20"
           id="path219"
           inkscape:connector-curvature="0" />
        <path
           d="m 723.85123,677.18824 c -3.274,0 -6.739,-4.48 -8.438,-11.07 l 0.684,0 c 6.316,0 11.086,3.32 11.086,7.68 0,1.9 -1.496,3.39 -3.332,3.39 z m -7,-13.59 c -0.481,0 -1.094,0 -1.977,0.07 -0.203,-1.22 -0.269,-2.24 -0.269,-3.27 0,-3.46 1.218,-5.3 3.601,-5.3 2.168,0 4.895,1.16 8.906,3.68 l 0.743,-2.31 c -5.032,-3.13 -8.829,-4.56 -12.293,-4.56 -4.219,0 -6.536,2.51 -6.536,7.07 0,11.21 7.618,20.93 16.375,20.93 4.29,0 6.797,-1.97 6.797,-5.37 0,-6.25 -6.66,-10.94 -15.347,-10.94"
           style="fill:#231f20"
           id="path221"
           inkscape:connector-curvature="0" />
        <path
           d="m 759.45123,671.18824 -2.234,0.21 c 0.125,0.81 0.191,1.77 0.191,2.65 0,1.22 -1.082,2.1 -2.781,2.1 -1.023,0 -2.039,-0.61 -2.93,-1.63 -2.578,-2.92 -3.593,-7.54 -5.097,-15.09 l -1.289,-6.58 c -2.579,-0.14 -3.25,-0.21 -5.911,-0.55 0.676,2.58 1.164,4.62 1.704,6.93 l 1.492,6.33 c 1.015,4.27 1.504,6.92 1.504,8.35 0,1.7 -0.411,2.45 -1.231,2.45 -0.41,0 -1.015,-0.14 -1.699,-0.34 l -1.699,-0.54 -0.203,2.03 c 3.328,1.36 7.136,2.45 8.836,2.45 0.671,0 1.082,-0.27 1.218,-0.95 0.207,-0.82 0.344,-1.77 0.41,-2.92 3.059,2.51 5.786,3.94 7.676,3.94 1.289,0 2.934,-0.68 4.485,-1.84 -1.082,-2.44 -1.907,-4.69 -2.442,-7"
           style="fill:#231f20"
           id="path223"
           inkscape:connector-curvature="0" />
        <path
           d="m 786.56123,651.88824 c -1.367,0 -2.168,0.81 -2.168,2.04 0,0.82 0.261,2.31 1.082,5.71 l 0.676,2.85 c 2.039,8.5 2.507,11.35 2.507,12.51 0,1.02 -0.468,1.56 -1.425,1.56 -1.153,0 -3.055,-0.68 -5.086,-1.9 -2.18,-1.23 -3.813,-2.65 -4.621,-3.88 -0.625,-1.02 -1.094,-2.78 -1.914,-6.38 -1.083,-4.96 -1.758,-8.36 -2.305,-11.56 -2.656,-0.2 -3.328,-0.27 -5.988,-0.61 1.371,5.1 2.382,9.31 3.41,14 1.015,4.62 1.425,6.8 1.425,8.02 0,1.56 -0.476,2.31 -1.503,2.31 -0.539,0 -1.7,-0.27 -3.332,-0.82 l -0.125,1.91 c 3.25,1.29 6.796,2.24 8.418,2.24 1.503,0 1.972,-0.88 1.972,-4.08 l 0,-0.54 c 5.164,2.92 10.469,4.62 14.141,4.62 2.246,0 3.125,-0.54 3.125,-1.9 0,-1.43 -0.41,-3.67 -1.836,-9.18 -0.82,-3.12 -1.563,-6.46 -1.836,-7.95 -0.41,-1.97 -0.606,-3.19 -0.606,-3.94 0,-1.02 0.54,-1.56 1.497,-1.56 0.601,0 1.902,0.27 3.535,0.88 l 0.203,-1.97 c -3.613,-1.29 -7.688,-2.38 -9.246,-2.38"
           style="fill:#231f20"
           id="path225"
           inkscape:connector-curvature="0" />
        <path
           d="m 807.74123,651.98824 c -1.344,0 -2.234,0.74 -2.234,1.97 0,0.61 0.195,1.7 0.547,3.2 0.879,3.6 2.097,8.48 2.785,11.07 0.945,3.54 1.355,5.98 1.355,6.93 0,0.89 -0.41,1.3 -1.152,1.3 -0.613,0 -1.23,-0.21 -2.645,-0.62 l -0.48,-0.13 -0.215,1.9 c 3.738,1.43 7.41,2.31 9.246,2.31 1.028,0 1.43,-0.34 1.43,-1.15 0,-0.82 -0.344,-3 -1.566,-7.75 l -1.012,-4.01 c -1.699,-6.6 -2.113,-8.9 -2.113,-9.99 0,-1.02 0.546,-1.63 1.566,-1.63 0.613,0 1.836,0.27 3.738,0.95 l 0.137,-1.91 c -3.606,-1.42 -7.481,-2.44 -9.387,-2.44 z m 7.414,34.73 c -2.097,0 -3.468,1.29 -3.468,3.26 0,2.44 1.769,4.14 4.21,4.14 2.04,0 3.333,-1.22 3.333,-3.19 0,-2.45 -1.704,-4.21 -4.075,-4.21"
           style="fill:#231f20"
           id="path227"
           inkscape:connector-curvature="0" />
        <path
           d="m 841.92123,675.78824 -5.644,0.14 -2.84,-13.93 c -0.754,-3.6 -0.824,-4.62 -0.824,-5.17 0,-0.94 0.468,-1.49 1.359,-1.49 0.476,0 1.496,0.27 3.125,0.75 l 0.683,0.2 0.208,-1.97 c -3.54,-1.43 -7.208,-2.38 -9.18,-2.38 -1.43,0 -2.317,0.68 -2.317,1.97 0,1.15 0.286,2.85 0.821,4.97 0.605,2.37 1.086,4.34 1.633,6.99 l 2.097,10.06 -3.594,-0.07 0.469,2.18 c 4.629,0.81 6.192,4.48 7.481,8.42 l 3.261,0.69 -1.699,-8.03 5.645,0.07 -0.684,-3.4"
           style="fill:#231f20"
           id="path229"
           inkscape:connector-curvature="0" />
        <path
           d="m 862.27126,677.18824 c -3.26,0 -6.73,-4.48 -8.43003,-11.07 l 0.67003,0 c 6.33,0 11.09,3.32 11.09,7.68 0,1.9 -1.51,3.39 -3.33,3.39 z m -7,-13.59 c -0.48,0 -1.09003,0 -1.98003,0.07 -0.2,-1.22 -0.27,-2.24 -0.27,-3.27 0,-3.46 1.23,-5.3 3.60003,-5.3 2.18,0 4.9,1.16 8.91,3.68 l 0.74,-2.31 c -5.02,-3.13 -8.84,-4.56 -12.30003,-4.56 -4.211,0 -6.516,2.51 -6.516,7.07 0,11.21 7.60603,20.93 16.37603,20.93 4.28,0 6.8,-1.97 6.8,-5.37 0,-6.25 -6.66,-10.94 -15.36,-10.94 z m 7.54,20.52 -2.17,1.77 8.29,9.38 6.11,-1.49 -12.23,-9.66"
           style="fill:#231f20"
           id="path231"
           inkscape:connector-curvature="0" />
        <path
           d="m 544.14123,664.58824 c 4.554,0 8.25,3.7 8.25,8.25 0,4.56 -3.696,8.25 -8.25,8.25 -4.551,0 -8.246,-3.69 -8.246,-8.25 0,-4.55 3.695,-8.25 8.246,-8.25"
           style="fill:#231f20"
           id="path233"
           inkscape:connector-curvature="0" />
        <path
           d="m 260.96123,664.58824 c 4.559,0 8.25,3.7 8.25,8.25 0,4.56 -3.691,8.25 -8.25,8.25 -4.551,0 -8.246,-3.69 -8.246,-8.25 0,-4.55 3.695,-8.25 8.246,-8.25"
           style="fill:#231f20"
           id="path235"
           inkscape:connector-curvature="0" />
        <path
           d="m 23.471231,621.96824 847.580029,0"
           style="fill:none;stroke:#231f20;stroke-width:3.24000001"
           id="path237"
           inkscape:connector-curvature="0" />
        <g
           id="g239"
           transform="translate(-147.82877,-371.81176)">
          <g
             clip-path="url(#clipPath3249)"
             id="g241">
            <path
               d="m 164.5,1101.7 866.06,0 0,305.2 -866.06,0 0,-305.2 z"
               style="fill:#ffffff"
               id="path243"
               inkscape:connector-curvature="0" />
            <path
               d="m 425.64,1217 c -7.692,-2.26 -15.551,-2.59 -22.68,-6.48 16.844,0.65 33.695,-1.94 49.894,-7.13 5.832,-1.94 11.02,-4.53 16.2,-7.77 2.589,-1.95 3.89,-3.89 6.476,-5.18 3.242,-1.95 7.781,-1.95 11.02,-0.65 l 3.242,0 c 9.719,2.59 20.086,5.18 26.566,12.31 0,-0.65 0.649,-0.65 1.297,-0.65 -1.945,-5.19 -1.945,-11.01 -5.836,-15.55 0,-0.65 -0.648,-1.95 0.653,-2.59 l 1.293,0 c -0.645,0 -1.293,0 -1.293,-0.65 0,-1.3 1.941,0 2.589,-1.3 -3.242,-0.65 -6.476,-1.29 -8.425,-3.89 0,-0.64 1.297,-0.64 1.949,-0.64 -1.301,-1.3 -3.242,-0.65 -3.895,-1.95 0,0 0.653,-0.65 1.301,-0.65 -0.648,0 -1.301,0 -1.301,-0.65 l 0,-1.93 c -1.941,0 -2.586,-1.3 -3.882,-1.95 2.589,-1.94 4.535,0 7.125,0 -7.125,-2.59 -12.958,-6.48 -20.086,-8.42 -1.297,0 0,-1.95 -1.297,-1.95 1.945,-1.29 3.242,0.65 5.183,0.65 -9.07,-5.19 -18.144,-9.72 -27.859,-15.55 0,0 -1.301,-1.3 -1.301,-2.59 l -2.594,0 c -1.293,-0.65 -0.644,-2.6 -1.941,-3.9 3.242,-1.94 7.129,2.6 9.07,0 0.653,0 -1.293,-0.64 -2.593,-0.64 -0.641,0 -0.641,-1.3 -1.293,-1.3 l -1.942,0 c -1.301,-1.29 -2.594,-1.94 -2.594,-3.88 -1.296,0 -2.593,0 -3.242,-1.3 14.258,1.94 29.16,0.65 42.77,7.78 10.371,5.18 20.086,12.31 28.515,21.38 0,0 0.645,-0.65 0.645,-1.3 -1.945,-6.48 -5.832,-11.01 -11.016,-14.9 -3.886,-1.94 -6.48,-5.18 -9.722,-6.48 -1.946,-1.3 -3.887,-2.59 -5.828,-3.89 -23.977,-8.42 -52.489,-4.53 -73.223,-20.73 0,0.65 -0.652,0.65 -1.301,0.65 -1.293,-1.3 -3.238,-1.95 -3.887,-3.25 0,-1.29 1.946,-0.65 2.594,-0.65 3.887,2.6 7.777,4.54 12.309,5.84 -5.18,-2.59 -10.367,-6.48 -15.547,-7.78 -11.02,-1.94 -21.387,-1.29 -32.403,0 6.481,3.89 12.958,8.42 20.086,12.31 -1.941,1.3 -3.882,1.3 -5.828,1.3 -3.242,-0.65 -7.129,1.3 -10.371,0 -9.719,-4.54 -22.679,-3.24 -27.859,-13.61 -64.801,-1.29 -130.25,0 -195.05,0 1.293,70.64 0,140.61 1.941,211.25 0.653,25.27 -0.648,50.54 -0.648,75.82 17.5,3.23 34.996,1.29 52.492,0.64 112.11,0 223.56,0.65 335.66,0 -7.777,-3.89 -16.851,-7.12 -22.679,-14.25 -5.188,-6.48 -10.368,-12.96 -12.317,-20.74 -8.422,-5.18 -13.609,-12.96 -18.144,-20.74 -5.828,-11.01 -14.254,-20.73 -12.957,-33.04 1.296,-10.37 3.89,-20.09 5.832,-31.11 0.644,-3.88 1.297,-7.13 2.593,-11.01 1.293,-3.89 0,-8.43 1.946,-11.67 1.293,-1.94 0.64,-4.54 3.234,-5.83 l 0,-2.59 c 0.649,-0.65 0.649,-1.3 1.945,-1.3 l 0,-2.59 c 5.184,-6.48 11.664,-12.31 14.907,-19.44 1.293,-3.89 -6.481,-1.95 -9.723,-0.65 -6.48,3.24 -10.363,8.43 -15.551,12.96 0,0 -0.648,-0.65 -0.648,-1.3 2.594,-4.53 12.312,-10.36 7.129,-13.61 -2.594,-1.29 -5.832,1.95 -8.422,-0.64 -0.653,-1.29 0,-2.59 0,-3.89 -3.891,2.6 -7.781,1.3 -11.668,2.6 -2.59,0.64 -3.242,5.83 -6.481,5.83 -8.422,1.94 -16.199,3.89 -24.621,4.53 -11.668,1.3 -22.679,3.24 -34.347,1.3 -10.368,-0.65 -18.145,-8.42 -24.621,-16.2 l 0,-1.95 c 4.535,-0.64 6.476,3.25 10.371,4.54 6.476,1.3 12.308,3.88 18.789,5.19 9.718,1.94 18.793,4.53 27.863,3.88 1.945,0 4.535,0.65 6.48,0 -11.664,0.65 -22.031,-3.24 -33.046,-6.48"
               style="fill:#2c49a0"
               id="path245"
               inkscape:connector-curvature="0" />
            <path
               d="m 389.36,1185.9 c -1.988,-0.5 -3.886,-1.95 -3.242,-3.24 1.946,-2.59 5.836,0.65 9.075,0.65 -3.887,-1.3 -8.426,-0.65 -11.665,-3.89 2.59,-1.95 5.184,-0.65 7.778,-0.65 0,-1.3 1.293,-1.3 1.941,-1.94 -3.238,-1.3 -5.832,-3.89 -6.48,-5.83 -1.293,-3.24 -4.535,-4.54 -6.481,-7.13 l 0,-1.95 c -6.476,-5.83 -13.605,-9.72 -18.793,-16.85 0.653,0 0.653,-0.64 0.653,-1.29 -1.297,-1.94 -3.887,-2.59 -4.539,-4.54 0,-0.64 0,-1.3 0.652,-1.3 7.777,2.6 13.605,8.43 20.734,11.02 5.184,1.3 9.071,4.54 13.606,5.83 3.242,0.65 7.129,1.95 10.371,2.6 0,-0.65 0,-1.3 0.648,-1.3 l 5.18,0 c -0.645,-1.3 -3.234,-0.65 -2.594,-1.3 1.949,-1.94 5.836,-1.29 8.43,0 1.941,1.3 3.887,1.3 6.48,1.3 0.649,0 0.649,1.3 0.649,1.95 1.941,-0.65 3.238,-0.65 5.18,-0.65 15.55,3.24 30.457,6.48 44.71,13.61 -16.843,12.95 -38.23,17.49 -58.32,23.32 1.949,0 3.891,-1.94 5.836,0 -3.242,2.6 -7.129,1.3 -10.371,3.24 0.648,0 1.945,-0.64 2.594,0.65 -5.188,2.59 -10.367,2.59 -15.551,3.89 3.242,0.65 5.184,3.24 5.184,6.48 0,0.65 -1.297,0.65 -1.942,0.65 -7.777,-3.89 -12.965,-11.02 -16.203,-19.44 4.535,-2.6 9.719,-0.65 14.254,-1.3 -1.941,-1.94 -5.18,-1.94 -7.774,-2.59"
               style="fill:#ffffff"
               id="path247"
               inkscape:connector-curvature="0" />
            <path
               d="m 362.79,1211.2 c -6.617,-7 -13.609,-13.61 -22.031,-18.14 -5.836,-11.67 -12.317,-22.03 -20.738,-33.05 0,-0.65 0.648,-1.3 0.648,-1.3 15.555,17.5 29.805,32.4 49.895,44.71 1.296,0.65 -1.946,-1.94 0.648,-1.29 8.422,1.94 11.016,10.37 14.902,16.84 5.188,8.43 14.258,11.67 20.739,18.8 0,-0.65 0,-1.3 -0.653,-1.95 0.653,-0.64 1.301,-0.64 1.949,-0.64 2.59,1.94 5.832,1.29 7.774,3.88 -5.184,1.94 -11.664,2.6 -16.844,0.65 -13.609,-6.48 -25.273,-16.84 -36.289,-28.51"
               style="fill:#ffffff"
               id="path249"
               inkscape:connector-curvature="0" />
            <path
               d="m 372.51,1198.9 c 0.574,1.16 1.293,1.3 1.941,2.59 0,0.65 0,1.3 -0.648,1.3 -2.594,-0.65 -4.535,-3.24 -5.188,-5.83 0,-0.66 0.653,-0.66 1.301,-0.66 1.293,0.66 1.941,1.3 2.594,2.6"
               style="fill:#ffffff"
               id="path251"
               inkscape:connector-curvature="0" />
            <path
               d="m 424.35,1149.6 c -2.59,-1.3 -7.129,-1.3 -7.778,-4.54 -0.648,-1.29 1.946,-0.64 3.239,-0.64 4.539,1.94 9.722,0 13.609,3.88 -1.293,1.3 -3.238,0.65 -4.535,2.6 -1.293,0.65 -3.238,-0.65 -4.535,-1.3"
               style="fill:#ffffff"
               id="path253"
               inkscape:connector-curvature="0" />
            <path
               d="m 494.98,1114.6 c 4,0.89 7.774,3.24 11.661,4.53 l 0,-1.29 c 9.722,3.89 16.851,12.31 26.574,15.55 0.64,0 1.941,-1.29 3.234,-0.65 5.836,5.18 12.317,11.02 20.739,9.72 0,-0.64 0,-1.29 0.648,-1.29 0.644,0 1.297,0 1.297,0.65 -2.594,-1.95 -5.188,-3.9 -7.778,-5.84 -0.648,-0.64 0,-1.29 0.649,-1.29 3.238,1.29 5.184,3.89 8.422,5.18 -0.645,-0.65 -0.645,-1.95 -1.293,-2.59 -12.313,-9.07 -21.383,-19.44 -31.106,-30.45 l -20.089,0 c 0,0.64 0,1.29 -0.649,1.29 -22.68,-1.94 -44.711,-1.29 -67.391,-1.29 12.961,1.94 25.922,5.83 38.879,7.12 5.188,0 10.368,-0.64 16.203,0.65"
               style="fill:#2c49a0"
               id="path255"
               inkscape:connector-curvature="0" />
            <path
               d="m 750.29,1147.7 c 1.559,4.68 3.238,9.72 0.645,14.25 -3.887,5.84 3.89,7.78 6.48,11.66 1.941,3.25 -1.297,5.19 -1.945,8.43 -0.645,1.3 -3.239,0.65 -4.535,2.59 4.535,1.95 11.664,5.84 8.421,11.66 -1.941,3.25 -5.179,8.43 -1.293,11.67 4.536,2.59 11.664,1.94 13.61,6.48 3.234,7.78 -3.887,14.26 -7.781,20.74 -1.942,3.88 -4.536,6.48 -7.122,10.36 -2.593,4.54 -5.835,8.43 -7.128,13.61 -1.946,5.19 0.648,9.72 0.648,14.91 0.645,9.71 -1.949,19.44 -4.535,29.16 -1.949,4.53 -2.594,9.71 -4.543,14.25 -0.645,2.59 -1.293,5.19 -3.235,7.78 -0.652,1.29 -0.652,3.24 0,4.54 2.59,1.94 5.184,3.88 7.778,6.48 1.941,3.23 0.644,7.77 -2.594,9.71 -4.535,1.95 -3.887,-4.53 -7.129,-5.83 l -1.941,0 c -0.653,1.94 0.64,2.6 1.941,3.89 0,0.65 0,1.94 -0.648,1.94 -2.594,0 -5.188,0.65 -5.832,1.95 -6.481,9.07 -15.551,13.61 -25.274,17.5 2.594,-0.65 5.188,-1.3 7.782,-1.3 4.535,-0.65 9.714,-0.65 13.601,1.3 3.242,1.29 3.891,6.48 5.188,9.71 1.296,2.59 -0.653,6.49 -1.946,8.43 -3.242,5.18 -8.422,8.42 -13.609,11.02 l 307.15,0 c 0.66,-95.91 -0.64,-191.81 -1.3,-287.71 -121.17,-1.95 -242.34,0 -363.52,0 3.887,12.95 11.016,25.27 22.68,33.69 2.589,1.3 5.828,1.94 9.07,2.59 11.016,0 22.031,-3.24 33.047,-4.53 1.297,0 2.594,-0.66 3.887,-1.3 3.886,-0.65 8.421,-0.65 12.316,0.64 4.535,1.3 9.715,3.9 11.664,9.73"
               style="fill:#eb222c"
               id="path257"
               inkscape:connector-curvature="0" />
            <path
               d="m 725.66,1275.3 c -3.824,0.96 -7.125,0 -11.016,0 -5.179,-1.29 -9.714,-1.94 -14.253,-3.88 3.886,2.59 7.773,5.18 12.308,6.48 3.242,0.64 6.481,2.59 9.723,2.59 3.887,0.65 7.773,1.94 11.015,0.65 3.239,-1.3 8.422,-1.3 9.075,-3.24 1.293,-3.89 -1.946,-7.79 -5.836,-10.37 -0.645,-1.3 1.949,-1.95 1.949,-3.24 -0.649,-1.3 -2.594,-1.95 -3.895,-1.95 -1.293,-0.65 -2.586,-2.59 -3.882,-3.89 1.296,0 0,-1.94 1.296,-1.94 -2.593,-3.24 1.293,-9.72 -2.593,-11.02 -4.535,-1.29 -9.719,-1.29 -14.907,0 2.594,0.65 5.836,-0.64 7.778,1.94 l 0,2.6 c 0,0.65 -0.649,0.65 -1.297,0.65 -0.645,-0.65 -1.293,-0.65 -1.293,-0.65 0,1.3 -1.297,2.59 -1.945,2.59 -3.887,-0.65 -7.129,1.3 -9.723,3.89 1.949,0.65 3.895,1.3 5.836,0.65 1.941,0 1.293,3.24 3.238,4.53 l 1.942,0 c 3.89,5.19 11.668,6.48 12.964,11.67 0,1.29 -3.89,1.29 -6.484,1.94"
               style="fill:#918f90"
               id="path259"
               inkscape:connector-curvature="0" />
          </g>
        </g>
      </g>
    </g>
  </g>
</svg>
