<?xml version="1.0" encoding="utf-8"?>
<!-- Generator: Adobe Illustrator 16.0.0, SVG Export Plug-In . SVG Version: 6.00 Build 0)  -->
<!DOCTYPE svg PUBLIC "-//W3C//DTD SVG 1.1//EN" "http://www.w3.org/Graphics/SVG/1.1/DTD/svg11.dtd">
<svg version="1.1" id="Layer_1" xmlns="http://www.w3.org/2000/svg" xmlns:xlink="http://www.w3.org/1999/xlink" x="0px" y="0px"
	 width="569.834px" height="546.722px" viewBox="0 0 569.834 546.722" enable-background="new 0 0 569.834 546.722"
	 xml:space="preserve">
<path fill="#00D094" d="M546.363,276.97c-0.07-6.373-5.252-11.52-11.642-11.52c-6.389,0-11.571,5.146-11.641,11.52h-0.008
	c-1.938,129.675-108.007,234.573-238.135,234.573c-131.334,0-238.181-106.847-238.181-238.182
	c0-131.333,106.847-238.182,238.181-238.182c88.333,0,165.568,48.346,206.689,119.955L303.646,343.117l-61.173-61.172
	l-11.777,11.777l73.048,73.048l11.779-11.777l-0.099-0.099l201.821-201.821l-0.036-0.036l0.024-0.004
	c-12.221-23.525-28.104-45.298-47.386-64.58c-49.391-49.391-115.059-76.592-184.908-76.592S149.421,39.062,100.03,88.453
	S23.438,203.512,23.438,273.361s27.201,135.518,76.592,184.908c49.391,49.392,115.059,76.592,184.908,76.592
	s135.518-27.2,184.908-76.592c48.539-48.538,75.627-112.8,76.549-181.299H546.363z"/>
</svg>
